<svg width="170" height="198" viewBox="0 0 170 198" fill="none" xmlns="http://www.w3.org/2000/svg">
<path d="M112.647 0H3.82353C2.80981 0.00111959 1.83793 0.40324 1.12113 1.11814C0.404318 1.83303 0.00112258 2.80232 0 3.81333V150.48C0.00114744 151.491 0.404351 152.46 1.12115 153.175C1.83796 153.89 2.80982 154.292 3.82353 154.293H112.647C113.661 154.292 114.633 153.89 115.349 153.175C116.066 152.46 116.469 151.491 116.471 150.48V3.81333C116.469 2.80233 116.066 1.83305 115.349 1.11816C114.633 0.403272 113.661 0.00114438 112.647 0Z" fill="#2F2E41"/>
<path d="M7.18523 4.69336C6.47798 4.70532 5.80433 4.99649 5.312 5.50304C4.81967 6.00959 4.54883 6.69018 4.55886 7.39558V146.898C4.54883 147.603 4.81967 148.284 5.312 148.79C5.80433 149.297 6.47798 149.588 7.18523 149.6H109.285C109.993 149.588 110.666 149.297 111.159 148.79C111.651 148.284 111.922 147.603 111.912 146.898V7.39558C111.922 6.69018 111.651 6.00959 111.159 5.50304C110.666 4.99649 109.993 4.70532 109.285 4.69336H7.18523Z" fill="white"/>
<path d="M12.4991 11.1467C11.526 11.1467 10.7344 12.0377 10.7344 13.133V32.3338C10.7344 33.4291 11.526 34.3201 12.4991 34.3201H103.97C104.943 34.3201 105.734 33.4291 105.734 32.3338V13.133C105.734 12.0377 104.943 11.1467 103.97 11.1467H12.4991Z" fill="#2F2E41"/>
<path d="M12.4992 43.6333C12.0247 43.6406 11.5724 43.8353 11.2416 44.1747C10.9108 44.5141 10.7284 44.9705 10.7345 45.4438V86.4828C10.7284 86.9561 10.9108 87.4125 11.2416 87.7519C11.5724 88.0913 12.0247 88.286 12.4992 88.2933H103.97C104.444 88.286 104.897 88.0913 105.227 87.7519C105.558 87.4125 105.741 86.9561 105.735 86.4828V45.4438C105.741 44.9705 105.558 44.5141 105.227 44.1747C104.897 43.8353 104.444 43.6406 103.97 43.6333H12.4992Z" fill="#2F2E41"/>
<path d="M94.4115 13.86H22.0586V17.9667H94.4115V13.86Z" fill="white"/>
<path d="M94.558 22.5133H22.2051V24.42H94.558V22.5133Z" fill="white"/>
<path d="M94.558 25.8867H22.2051V27.7934H94.558V25.8867Z" fill="white"/>
<path d="M94.558 29.26H22.2051V31.1667H94.558V29.26Z" fill="white"/>
<path d="M65.0475 88.3667H98.3449C98.5569 88.3667 98.7641 88.304 98.9404 88.1865C99.1166 88.069 99.254 87.9021 99.3351 87.7068C99.4162 87.5115 99.4375 87.2965 99.3961 87.0892C99.3548 86.8818 99.2527 86.6913 99.1029 86.5418L77.7921 65.2879C77.5909 65.0877 77.3184 64.9753 77.0342 64.9753C76.75 64.9753 76.4775 65.0877 76.2763 65.2879L70.9769 70.5732C70.7681 70.7814 70.5203 70.9466 70.2475 71.0593C69.9748 71.172 69.6824 71.23 69.3871 71.23C69.0919 71.23 68.7995 71.172 68.5268 71.0593C68.254 70.9466 68.0062 70.7814 67.7974 70.5732L51.1989 54.0189C50.9977 53.8187 50.7251 53.7063 50.4409 53.7063C50.1567 53.7063 49.8841 53.8187 49.6829 54.0189L17.2201 86.3951C17.0702 86.5447 16.9682 86.7351 16.9268 86.9425C16.8855 87.1499 16.9067 87.3648 16.9879 87.5601C17.069 87.7554 17.2064 87.9224 17.3826 88.0398C17.5589 88.1573 17.7661 88.22 17.9781 88.22H65.0902L65.0475 88.3667Z" fill="white"/>
<path d="M25.4419 57.42C27.716 57.42 29.5595 55.5814 29.5595 53.3133C29.5595 51.0453 27.716 49.2067 25.4419 49.2067C23.1678 49.2067 21.3242 51.0453 21.3242 53.3133C21.3242 55.5814 23.1678 57.42 25.4419 57.42Z" fill="white"/>
<path d="M12.4992 97.8999C12.0247 97.9072 11.5724 98.1019 11.2416 98.4413C10.9108 98.7807 10.7284 99.2371 10.7345 99.7104V140.749C10.7284 141.223 10.9108 141.679 11.2416 142.018C11.5724 142.358 12.0247 142.553 12.4992 142.56H103.97C104.444 142.553 104.897 142.358 105.227 142.018C105.558 141.679 105.741 141.223 105.735 140.749V99.7104C105.741 99.2371 105.558 98.7807 105.227 98.4413C104.897 98.1019 104.444 97.9072 103.97 97.8999H12.4992Z" fill="#2F2E41"/>
<path d="M65.0475 142.633H98.3449C98.5569 142.633 98.7641 142.571 98.9403 142.453C99.1166 142.336 99.2539 142.169 99.3351 141.973C99.4162 141.778 99.4374 141.563 99.3961 141.356C99.3548 141.148 99.2527 140.958 99.1028 140.808L77.7921 119.555C77.5909 119.354 77.3183 119.242 77.0342 119.242C76.75 119.242 76.4775 119.354 76.2763 119.555L70.9768 124.84C70.7681 125.048 70.5203 125.213 70.2475 125.326C69.9747 125.439 69.6823 125.497 69.387 125.497C69.0918 125.497 68.7994 125.439 68.5266 125.326C68.2538 125.213 68.006 125.048 67.7973 124.84L51.1989 108.286C50.9976 108.085 50.725 107.973 50.4409 107.973C50.1567 107.973 49.8842 108.085 49.6829 108.286L17.2201 140.662C17.0702 140.811 16.9682 141.002 16.9268 141.209C16.8855 141.416 16.9067 141.631 16.9879 141.827C17.069 142.022 17.2064 142.189 17.3826 142.306C17.5589 142.424 17.7661 142.487 17.9781 142.487H65.0902L65.0475 142.633Z" fill="white"/>
<path d="M25.4419 111.687C27.716 111.687 29.5595 109.848 29.5595 107.58C29.5595 105.312 27.716 103.473 25.4419 103.473C23.1678 103.473 21.3242 105.312 21.3242 107.58C21.3242 109.848 23.1678 111.687 25.4419 111.687Z" fill="white"/>
<path d="M42.0592 33.7334C41.3574 33.7342 40.6846 34.0126 40.1883 34.5075C39.6921 35.0025 39.4129 35.6735 39.4121 36.3734V183.04C39.4129 183.74 39.692 184.411 40.1883 184.906C40.6845 185.401 41.3574 185.679 42.0592 185.68H150.883C151.585 185.679 152.257 185.401 152.754 184.906C153.25 184.411 153.529 183.74 153.53 183.04V36.3734C153.529 35.6735 153.25 35.0024 152.754 34.5075C152.257 34.0126 151.585 33.7342 150.883 33.7334H42.0592Z" fill="#2F2E41"/>
<path d="M45.2731 37.84C44.5659 37.8519 43.8922 38.1431 43.3999 38.6496C42.9076 39.1562 42.6367 39.8368 42.6468 40.5422V180.044C42.6367 180.75 42.9076 181.43 43.3999 181.937C43.8922 182.443 44.5659 182.735 45.2731 182.747H147.373C148.081 182.735 148.754 182.443 149.247 181.937C149.739 181.43 150.01 180.75 150 180.044V40.5422C150.01 39.8368 149.739 39.1562 149.247 38.6496C148.754 38.1431 148.081 37.8519 147.373 37.84H45.2731Z" fill="white"/>
<path d="M61.2507 58.1335C60.9388 58.1339 60.6397 58.2576 60.4192 58.4776C60.1986 58.6976 60.0746 58.9958 60.0742 59.3069V64.6922C60.0746 65.0032 60.1986 65.3015 60.4192 65.5214C60.6397 65.7414 60.9388 65.8651 61.2507 65.8655H130.662C130.974 65.8652 131.273 65.7414 131.494 65.5215C131.715 65.3015 131.839 65.0032 131.839 64.6922V59.3069C131.839 58.9958 131.715 58.6975 131.494 58.4776C131.273 58.2576 130.974 58.1339 130.662 58.1335H61.2507Z" fill="#FEC5BB"/>
<path d="M60.8078 75.9553C60.7298 75.9554 60.6551 75.9864 60.5999 76.0413C60.5448 76.0963 60.5138 76.1709 60.5137 76.2487V78.351C60.5138 78.4287 60.5448 78.5033 60.5999 78.5583C60.6551 78.6133 60.7298 78.6442 60.8078 78.6443H131.396C131.474 78.6442 131.549 78.6133 131.604 78.5583C131.659 78.5033 131.69 78.4287 131.69 78.351V76.2487C131.69 76.1709 131.659 76.0963 131.604 76.0413C131.549 75.9863 131.474 75.9554 131.396 75.9553H60.8078Z" fill="#CCCCCC"/>
<path d="M60.8078 82.7886C60.7298 82.7887 60.6551 82.8196 60.5999 82.8746C60.5448 82.9296 60.5138 83.0041 60.5137 83.0819V85.1842C60.5138 85.262 60.5448 85.3365 60.5999 85.3915C60.6551 85.4465 60.7298 85.4775 60.8078 85.4776H131.396C131.474 85.4775 131.549 85.4466 131.604 85.3916C131.659 85.3366 131.69 85.262 131.69 85.1842V83.0819C131.69 83.0041 131.659 82.9296 131.604 82.8746C131.549 82.8196 131.474 82.7887 131.396 82.7886H60.8078Z" fill="#CCCCCC"/>
<path d="M60.8078 89.6218C60.7298 89.6219 60.6551 89.6529 60.5999 89.7079C60.5448 89.7628 60.5138 89.8374 60.5137 89.9152V92.0173C60.5138 92.0951 60.5448 92.1697 60.5999 92.2246C60.6551 92.2796 60.7298 92.3106 60.8078 92.3107H131.396C131.474 92.3106 131.549 92.2797 131.604 92.2247C131.659 92.1697 131.69 92.0951 131.69 92.0173V89.9152C131.69 89.8374 131.659 89.7628 131.604 89.7078C131.549 89.6528 131.474 89.6219 131.396 89.6218H60.8078Z" fill="#CCCCCC"/>
<path d="M60.6613 103.271C60.5833 103.271 60.5086 103.302 60.4534 103.357C60.3983 103.412 60.3673 103.487 60.3672 103.565V105.667C60.3673 105.745 60.3983 105.819 60.4534 105.874C60.5086 105.929 60.5833 105.96 60.6613 105.96H131.25C131.328 105.96 131.402 105.929 131.457 105.874C131.513 105.819 131.544 105.745 131.544 105.667V103.565C131.544 103.487 131.513 103.412 131.457 103.357C131.402 103.302 131.328 103.271 131.25 103.271H60.6613Z" fill="#CCCCCC"/>
<path d="M60.6613 110.104C60.5833 110.105 60.5086 110.136 60.4534 110.191C60.3983 110.246 60.3673 110.32 60.3672 110.398V112.5C60.3673 112.578 60.3983 112.652 60.4534 112.707C60.5086 112.762 60.5833 112.793 60.6613 112.793H131.25C131.328 112.793 131.402 112.762 131.457 112.707C131.513 112.652 131.544 112.578 131.544 112.5V110.398C131.544 110.32 131.513 110.245 131.457 110.191C131.402 110.136 131.328 110.105 131.25 110.104H60.6613Z" fill="#CCCCCC"/>
<path d="M60.6613 116.938C60.5833 116.938 60.5086 116.969 60.4534 117.024C60.3983 117.078 60.3673 117.153 60.3672 117.231V119.333C60.3673 119.411 60.3983 119.485 60.4534 119.54C60.5086 119.595 60.5833 119.626 60.6613 119.626H131.25C131.328 119.626 131.402 119.596 131.457 119.541C131.513 119.486 131.544 119.411 131.544 119.333V117.231C131.544 117.153 131.513 117.078 131.457 117.023C131.402 116.968 131.328 116.938 131.25 116.938H60.6613Z" fill="#CCCCCC"/>
<path d="M60.6613 123.804C60.5833 123.805 60.5086 123.835 60.4534 123.89C60.3983 123.945 60.3673 124.02 60.3672 124.098V126.2C60.3673 126.278 60.3983 126.352 60.4534 126.407C60.5086 126.462 60.5833 126.493 60.6613 126.493H131.25C131.328 126.493 131.402 126.462 131.457 126.407C131.513 126.352 131.544 126.278 131.544 126.2V124.098C131.544 124.02 131.513 123.945 131.457 123.89C131.402 123.835 131.328 123.804 131.25 123.804H60.6613Z" fill="#CCCCCC"/>
<path d="M60.6613 130.638C60.5833 130.638 60.5086 130.669 60.4534 130.724C60.3983 130.779 60.3673 130.853 60.3672 130.931V133.033C60.3673 133.111 60.3983 133.186 60.4534 133.241C60.5086 133.296 60.5833 133.327 60.6613 133.327H131.25C131.328 133.327 131.402 133.296 131.457 133.241C131.513 133.186 131.544 133.111 131.544 133.033V130.931C131.544 130.853 131.513 130.779 131.457 130.724C131.402 130.669 131.328 130.638 131.25 130.638H60.6613Z" fill="#CCCCCC"/>
<path d="M60.6613 137.471C60.5833 137.471 60.5086 137.502 60.4534 137.557C60.3983 137.612 60.3673 137.686 60.3672 137.764V139.866C60.3673 139.944 60.3983 140.019 60.4534 140.074C60.5086 140.129 60.5833 140.16 60.6613 140.16H131.25C131.328 140.16 131.402 140.129 131.457 140.074C131.513 140.019 131.544 139.944 131.544 139.866V137.764C131.544 137.686 131.513 137.612 131.457 137.557C131.402 137.502 131.328 137.471 131.25 137.471H60.6613Z" fill="#CCCCCC"/>
<path d="M60.6613 144.338C60.5833 144.338 60.5086 144.369 60.4534 144.424C60.3983 144.479 60.3673 144.553 60.3672 144.631V146.733C60.3673 146.811 60.3983 146.886 60.4534 146.941C60.5086 146.996 60.5833 147.027 60.6613 147.027H131.25C131.328 147.027 131.402 146.996 131.457 146.941C131.513 146.886 131.544 146.811 131.544 146.733V144.631C131.544 144.553 131.513 144.479 131.457 144.424C131.402 144.369 131.328 144.338 131.25 144.338H60.6613Z" fill="#CCCCCC"/>
<path d="M60.6613 151.171C60.5833 151.171 60.5086 151.202 60.4534 151.257C60.3983 151.312 60.3673 151.386 60.3672 151.464V153.567C60.3673 153.644 60.3983 153.719 60.4534 153.774C60.5086 153.829 60.5833 153.86 60.6613 153.86H131.25C131.328 153.86 131.402 153.829 131.457 153.774C131.513 153.719 131.544 153.644 131.544 153.567V151.464C131.544 151.386 131.513 151.312 131.457 151.257C131.402 151.202 131.328 151.171 131.25 151.171H60.6613Z" fill="#CCCCCC"/>
<path d="M60.6613 158.004C60.5833 158.004 60.5086 158.035 60.4534 158.09C60.3983 158.145 60.3673 158.22 60.3672 158.297V160.4C60.3673 160.478 60.3983 160.552 60.4534 160.607C60.5086 160.662 60.5833 160.693 60.6613 160.693H131.25C131.328 160.693 131.402 160.662 131.457 160.607C131.513 160.552 131.544 160.478 131.544 160.4V158.297C131.544 158.22 131.513 158.145 131.457 158.09C131.402 158.035 131.328 158.004 131.25 158.004H60.6613Z" fill="#CCCCCC"/>
<path d="M148.529 198C160.387 198 170 188.413 170 176.587C170 164.76 160.387 155.173 148.529 155.173C136.671 155.173 127.059 164.76 127.059 176.587C127.059 188.413 136.671 198 148.529 198Z" fill="#FEC5BB"/>
<path d="M146.483 185.626L140.057 177.386L143.794 174.486L146.837 178.388L157.116 167.566L160.553 170.814L146.483 185.626Z" fill="white"/>
</svg>
