<svg width="279" height="179" viewBox="0 0 279 179" fill="none" xmlns="http://www.w3.org/2000/svg">
<g clip-path="url(#clip0)">
<path d="M42.0047 48.8802C42.4701 43.855 43.7554 38.9406 45.8094 34.3331C46.3819 33.0509 47.0119 31.7969 47.6997 30.5711C47.7341 30.507 47.7424 30.432 47.7228 30.3619C47.7032 30.2917 47.6572 30.232 47.5944 30.1953C47.5317 30.1585 47.4572 30.1476 47.3867 30.1649C47.3161 30.1821 47.255 30.2262 47.2162 30.2878C44.7153 34.7523 42.9632 39.5986 42.0301 44.6328C41.7705 46.0387 41.5754 47.4545 41.4448 48.8802C41.4116 49.2398 41.9717 49.2375 42.0047 48.8802Z" fill="#E6E6E6"/>
<path d="M49.056 31.4715C51.0145 31.4715 52.6023 29.8796 52.6023 27.9158C52.6023 25.9521 51.0145 24.3602 49.056 24.3602C47.0975 24.3602 45.5098 25.9521 45.5098 27.9158C45.5098 29.8796 47.0975 31.4715 49.056 31.4715Z" fill="#E6E6E6"/>
<path d="M42.3661 48.9746C42.668 45.7145 43.5019 42.5263 44.8344 39.5372C45.2058 38.7054 45.6145 37.8918 46.0607 37.0966C46.0831 37.055 46.0884 37.0064 46.0757 36.9609C46.063 36.9154 46.0331 36.8766 45.9924 36.8528C45.9518 36.8289 45.9034 36.8219 45.8576 36.8331C45.8118 36.8443 45.7722 36.8729 45.747 36.9128C44.1246 39.8091 42.9879 42.9532 42.3826 46.2191C42.2142 47.1312 42.0876 48.0497 42.0029 48.9746C41.9813 49.2079 42.3447 49.2064 42.3661 48.9746Z" fill="#E6E6E6"/>
<path d="M46.9412 37.6808C48.2118 37.6808 49.2419 36.648 49.2419 35.3741C49.2419 34.1001 48.2118 33.0674 46.9412 33.0674C45.6706 33.0674 44.6406 34.1001 44.6406 35.3741C44.6406 36.648 45.6706 37.6808 46.9412 37.6808Z" fill="#E6E6E6"/>
<path d="M41.9081 48.7568C40.1463 46.0002 38.848 42.9721 38.065 39.7935C37.8476 38.9086 37.6708 38.0151 37.5348 37.1129C37.5269 37.0663 37.5013 37.0246 37.4634 36.9966C37.4254 36.9686 37.3781 36.9565 37.3314 36.9627C37.2847 36.969 37.2423 36.9933 37.213 37.0303C37.1838 37.0674 37.1701 37.1144 37.1747 37.1614C37.6722 40.4457 38.7046 43.6256 40.2308 46.5741C40.6575 47.3971 41.1211 48.1993 41.6217 48.9809C41.7478 49.1781 42.0334 48.9528 41.9081 48.7568Z" fill="#E6E6E6"/>
<path d="M37.1717 37.5188C38.4423 37.5188 39.4723 36.4861 39.4723 35.2122C39.4723 33.9382 38.4423 32.9055 37.1717 32.9055C35.9011 32.9055 34.8711 33.9382 34.8711 35.2122C34.8711 36.4861 35.9011 37.5188 37.1717 37.5188Z" fill="#E6E6E6"/>
<path d="M34.8457 50.7977V46.2656C34.8462 45.815 35.025 45.383 35.3427 45.0644C35.6605 44.7458 36.0914 44.5665 36.5408 44.566H47.0879C47.5373 44.5665 47.9682 44.7458 48.286 45.0644C48.6037 45.383 48.7825 45.815 48.783 46.2656V50.7977C48.7825 51.2483 48.6037 51.6803 48.286 51.9989C47.9682 52.3175 47.5373 52.4968 47.0879 52.4973H36.5408C36.0914 52.4968 35.6605 52.3175 35.3427 51.9989C35.025 51.6803 34.8462 51.2483 34.8457 50.7977Z" fill="#FAE1DD"/>
<path d="M46.7114 21.9053H42.1912C41.7418 21.9048 41.3109 21.7256 40.9931 21.407C40.6754 21.0884 40.4966 20.6564 40.4961 20.2058V1.69955C40.4966 1.24896 40.6754 0.816965 40.9931 0.498348C41.3109 0.17973 41.7418 0.00050781 42.1912 0H46.7114C47.1608 0.00050781 47.5916 0.17973 47.9094 0.498348C48.2272 0.816965 48.4059 1.24896 48.4064 1.69955V20.2058C48.4059 20.6564 48.2272 21.0884 47.9094 21.407C47.5916 21.7256 47.1608 21.9048 46.7114 21.9053Z" fill="#FAE1DD"/>
<path d="M48.2173 3.58795H40.6836V5.09866H48.2173V3.58795Z" fill="#FEC5BB"/>
<path d="M48.2173 15.296H40.6836V16.8067H48.2173V15.296Z" fill="#FEC5BB"/>
<path d="M58.0122 21.9053H53.492C53.0425 21.9048 52.6117 21.7256 52.2939 21.407C51.9761 21.0884 51.7974 20.6564 51.7969 20.2058V1.69955C51.7974 1.24896 51.9761 0.816965 52.2939 0.498348C52.6117 0.17973 53.0425 0.00050781 53.492 0H58.0122C58.4616 0.00050781 58.8924 0.17973 59.2102 0.498348C59.528 0.816965 59.7067 1.24896 59.7072 1.69955V20.2058C59.7067 20.6564 59.528 21.0884 59.2102 21.407C58.8924 21.7256 58.4616 21.9048 58.0122 21.9053Z" fill="#FAE1DD"/>
<path d="M59.518 3.58795H51.9844V5.09866H59.518V3.58795Z" fill="#FEC5BB"/>
<path d="M59.518 15.296H51.9844V16.8067H59.518V15.296Z" fill="#FEC5BB"/>
<path d="M69.3129 21.9053H64.7927C64.3433 21.9048 63.9125 21.7256 63.5947 21.407C63.2769 21.0884 63.0982 20.6564 63.0977 20.2058V1.69955C63.0982 1.24896 63.2769 0.816965 63.5947 0.498348C63.9125 0.17973 64.3433 0.00050781 64.7927 0H69.3129C69.7623 0.00050781 70.1932 0.17973 70.511 0.498348C70.8288 0.816965 71.0075 1.24896 71.008 1.69955V20.2058C71.0075 20.6564 70.8288 21.0884 70.511 21.407C70.1932 21.7256 69.7623 21.9048 69.3129 21.9053Z" fill="#FAE1DD"/>
<path d="M70.8188 3.58795H63.2852V5.09866H70.8188V3.58795Z" fill="#FEC5BB"/>
<path d="M70.8188 15.296H63.2852V16.8067H70.8188V15.296Z" fill="#FEC5BB"/>
<path d="M75.3383 52.4972H70.8181C70.3687 52.4967 69.9379 52.3175 69.6201 51.9989C69.3023 51.6803 69.1236 51.2483 69.123 50.7977V32.2915C69.1236 31.8409 69.3023 31.4089 69.6201 31.0903C69.9379 30.7716 70.3687 30.5924 70.8181 30.5919H75.3383C75.7877 30.5924 76.2186 30.7716 76.5364 31.0903C76.8541 31.4089 77.0329 31.8409 77.0334 32.2915V50.7977C77.0329 51.2483 76.8541 51.6803 76.5364 51.9989C76.2186 52.3175 75.7877 52.4967 75.3383 52.4972Z" fill="#FAE1DD"/>
<path d="M76.8462 34.1799H69.3125V35.6906H76.8462V34.1799Z" fill="#FEC5BB"/>
<path d="M76.8462 45.8879H69.3125V47.3986H76.8462V45.8879Z" fill="#FEC5BB"/>
<path d="M86.6391 52.4972H82.1189C81.6695 52.4967 81.2386 52.3175 80.9209 51.9989C80.6031 51.6803 80.4243 51.2483 80.4238 50.7977V32.2915C80.4243 31.8409 80.6031 31.4089 80.9209 31.0903C81.2386 30.7716 81.6695 30.5924 82.1189 30.5919H86.6391C87.0885 30.5924 87.5194 30.7716 87.8372 31.0903C88.1549 31.4089 88.3337 31.8409 88.3342 32.2915V50.7977C88.3337 51.2483 88.1549 51.6803 87.8372 51.9989C87.5194 52.3175 87.0885 52.4967 86.6391 52.4972Z" fill="#FAE1DD"/>
<path d="M88.1469 34.1799H80.6133V35.6906H88.1469V34.1799Z" fill="#FEC5BB"/>
<path d="M88.1469 45.8879H80.6133V47.3986H88.1469V45.8879Z" fill="#FEC5BB"/>
<path d="M97.9399 52.4972H93.4197C92.9703 52.4967 92.5394 52.3175 92.2216 51.9989C91.9039 51.6803 91.7251 51.2483 91.7246 50.7977V32.2915C91.7251 31.8409 91.9039 31.4089 92.2216 31.0903C92.5394 30.7716 92.9703 30.5924 93.4197 30.5919H97.9399C98.3893 30.5924 98.8201 30.7716 99.1379 31.0903C99.4557 31.4089 99.6344 31.8409 99.6349 32.2915V50.7977C99.6344 51.2483 99.4557 51.6803 99.1379 51.9989C98.8201 52.3175 98.3893 52.4967 97.9399 52.4972Z" fill="#FAE1DD"/>
<path d="M99.4477 34.1799H91.9141V35.6906H99.4477V34.1799Z" fill="#FEC5BB"/>
<path d="M99.4477 45.8879H91.9141V47.3986H99.4477V45.8879Z" fill="#FEC5BB"/>
<path d="M45.5805 83.0892H41.0603C40.6109 83.0887 40.1801 82.9094 39.8623 82.5908C39.5445 82.2722 39.3657 81.8402 39.3652 81.3896V62.8834C39.3657 62.4328 39.5445 62.0008 39.8623 61.6822C40.1801 61.3636 40.6109 61.1843 41.0603 61.1838H45.5805C46.0299 61.1843 46.4608 61.3636 46.7786 61.6822C47.0963 62.0008 47.2751 62.4328 47.2756 62.8834V81.3896C47.2751 81.8402 47.0963 82.2722 46.7786 82.5908C46.4608 82.9094 46.0299 83.0887 45.5805 83.0892Z" fill="#FAE1DD"/>
<path d="M47.0884 64.7718H39.5547V66.2825H47.0884V64.7718Z" fill="#FEC5BB"/>
<path d="M47.0884 76.4798H39.5547V77.9905H47.0884V76.4798Z" fill="#FEC5BB"/>
<path d="M56.8813 83.0892H52.3611C51.9117 83.0887 51.4808 82.9094 51.1631 82.5908C50.8453 82.2722 50.6665 81.8402 50.666 81.3896V62.8834C50.6665 62.4328 50.8453 62.0008 51.1631 61.6822C51.4808 61.3636 51.9117 61.1843 52.3611 61.1838H56.8813C57.3307 61.1843 57.7616 61.3636 58.0793 61.6822C58.3971 62.0008 58.5759 62.4328 58.5764 62.8834V81.3896C58.5759 81.8402 58.3971 82.2722 58.0793 82.5908C57.7616 82.9094 57.3307 83.0887 56.8813 83.0892Z" fill="#FAE1DD"/>
<path d="M58.3891 64.7718H50.8555V66.2825H58.3891V64.7718Z" fill="#FEC5BB"/>
<path d="M58.3891 76.4798H50.8555V77.9905H58.3891V76.4798Z" fill="#FEC5BB"/>
<path d="M68.1821 83.0892H63.6619C63.2125 83.0887 62.7816 82.9094 62.4638 82.5908C62.1461 82.2722 61.9673 81.8402 61.9668 81.3896V62.8834C61.9673 62.4328 62.1461 62.0008 62.4638 61.6822C62.7816 61.3636 63.2125 61.1843 63.6619 61.1838H68.1821C68.6315 61.1843 69.0623 61.3636 69.3801 61.6822C69.6979 62.0008 69.8766 62.4328 69.8772 62.8834V81.3896C69.8766 81.8402 69.6979 82.2722 69.3801 82.5908C69.0623 82.9094 68.6315 83.0887 68.1821 83.0892Z" fill="#FAE1DD"/>
<path d="M69.688 64.7718H62.1543V66.2825H69.688V64.7718Z" fill="#FEC5BB"/>
<path d="M69.688 76.4798H62.1543V77.9905H69.688V76.4798Z" fill="#FEC5BB"/>
<path d="M80.6137 21.9053H76.0935C75.6441 21.9048 75.2133 21.7256 74.8955 21.407C74.5777 21.0884 74.3989 20.6564 74.3984 20.2058V1.69955C74.3989 1.24896 74.5777 0.816965 74.8955 0.498348C75.2133 0.17973 75.6441 0.00050781 76.0935 0H80.6137C81.0631 0.00050781 81.494 0.17973 81.8118 0.498348C82.1295 0.816965 82.3083 1.24896 82.3088 1.69955V20.2058C82.3083 20.6564 82.1295 21.0884 81.8118 21.407C81.494 21.7256 81.0631 21.9048 80.6137 21.9053Z" fill="#FAE1DD"/>
<path d="M82.1196 3.58795H74.5859V5.09866H82.1196V3.58795Z" fill="#FEC5BB"/>
<path d="M82.1196 15.296H74.5859V16.8067H82.1196V15.296Z" fill="#FEC5BB"/>
<path d="M91.9125 21.9053H87.3923C86.9429 21.9048 86.5121 21.7256 86.1943 21.407C85.8765 21.0884 85.6978 20.6564 85.6973 20.2058V1.69955C85.6978 1.24896 85.8765 0.816965 86.1943 0.498348C86.5121 0.17973 86.9429 0.00050781 87.3923 0H91.9125C92.362 0.00050781 92.7928 0.17973 93.1106 0.498348C93.4284 0.816965 93.6071 1.24896 93.6076 1.69955V20.2058C93.6071 20.6564 93.4284 21.0884 93.1106 21.407C92.7928 21.7256 92.362 21.9048 91.9125 21.9053Z" fill="#FAE1DD"/>
<path d="M93.4204 3.58795H85.8867V5.09866H93.4204V3.58795Z" fill="#FEC5BB"/>
<path d="M93.4204 15.296H85.8867V16.8067H93.4204V15.296Z" fill="#FEC5BB"/>
<path d="M103.213 21.9053H98.6931C98.2437 21.9048 97.8129 21.7256 97.4951 21.407C97.1773 21.0884 96.9986 20.6564 96.998 20.2058V1.69955C96.9986 1.24896 97.1773 0.816965 97.4951 0.498348C97.8129 0.17973 98.2437 0.00050781 98.6931 0H103.213C103.663 0.00050781 104.094 0.17973 104.411 0.498348C104.729 0.816965 104.908 1.24896 104.908 1.69955V20.2058C104.908 20.6564 104.729 21.0884 104.411 21.407C104.094 21.7256 103.663 21.9048 103.213 21.9053Z" fill="#FAE1DD"/>
<path d="M104.721 3.58795H97.1875V5.09866H104.721V3.58795Z" fill="#FEC5BB"/>
<path d="M104.721 15.296H97.1875V16.8067H104.721V15.296Z" fill="#FEC5BB"/>
<path d="M114.514 21.9053H109.994C109.544 21.9048 109.114 21.7256 108.796 21.407C108.478 21.0884 108.299 20.6564 108.299 20.2058V1.69955C108.299 1.24896 108.478 0.816965 108.796 0.498348C109.114 0.17973 109.544 0.00050781 109.994 0H114.514C114.964 0.00050781 115.394 0.17973 115.712 0.498348C116.03 0.816965 116.209 1.24896 116.209 1.69955V20.2058C116.209 20.6564 116.03 21.0884 115.712 21.407C115.394 21.7256 114.964 21.9048 114.514 21.9053Z" fill="#FAE1DD"/>
<path d="M116.02 3.58795H108.486V5.09866H116.02V3.58795Z" fill="#FEC5BB"/>
<path d="M116.02 15.296H108.486V16.8067H116.02V15.296Z" fill="#FEC5BB"/>
<path d="M131.442 22.4718H24.0876C23.9877 22.4718 23.8919 22.4321 23.8213 22.3612C23.7506 22.2904 23.7109 22.1943 23.7109 22.0942C23.7109 21.994 23.7506 21.8979 23.8213 21.8271C23.8919 21.7563 23.9877 21.7165 24.0876 21.7165H131.442C131.542 21.7165 131.638 21.7563 131.709 21.8271C131.779 21.8979 131.819 21.994 131.819 22.0942C131.819 22.1943 131.779 22.2904 131.709 22.3612C131.638 22.4321 131.542 22.4718 131.442 22.4718Z" fill="#FEC5BB"/>
<path d="M131.442 53.0638H24.0876C23.9877 53.0638 23.8919 53.024 23.8213 52.9531C23.7506 52.8823 23.7109 52.7863 23.7109 52.6861C23.7109 52.5859 23.7506 52.4899 23.8213 52.419C23.8919 52.3482 23.9877 52.3084 24.0876 52.3084H131.442C131.542 52.3084 131.638 52.3482 131.709 52.419C131.779 52.4899 131.819 52.5859 131.819 52.6861C131.819 52.7863 131.779 52.8823 131.709 52.9531C131.638 53.024 131.542 53.0638 131.442 53.0638Z" fill="#FEC5BB"/>
<path d="M131.442 83.6557H24.0876C23.9877 83.6557 23.8919 83.6159 23.8213 83.5451C23.7506 83.4742 23.7109 83.3782 23.7109 83.278C23.7109 83.1778 23.7506 83.0818 23.8213 83.0109C23.8919 82.9401 23.9877 82.9003 24.0876 82.9003H131.442C131.542 82.9003 131.638 82.9401 131.709 83.0109C131.779 83.0818 131.819 83.1778 131.819 83.278C131.819 83.3782 131.779 83.4742 131.709 83.5451C131.638 83.6159 131.542 83.6557 131.442 83.6557Z" fill="#FEC5BB"/>
<path d="M125.086 142.944C125.086 140.024 114.124 137.657 100.602 137.657C87.0793 137.657 76.1172 140.024 76.1172 142.944C76.1172 144.816 80.624 146.459 87.4177 147.399V176.369C87.4177 177.02 87.6756 177.644 88.1348 178.105C88.594 178.565 89.2168 178.824 89.8661 178.824C90.5155 178.824 91.1383 178.565 91.5974 178.105C92.0566 177.644 92.3146 177.02 92.3146 176.369V147.921C94.9032 148.122 97.6924 148.232 100.602 148.232C103.511 148.232 106.3 148.122 108.889 147.921V176.369C108.889 177.02 109.147 177.644 109.606 178.105C110.065 178.565 110.688 178.824 111.337 178.824C111.986 178.824 112.609 178.565 113.068 178.105C113.528 177.644 113.786 177.02 113.786 176.369V147.399C120.579 146.459 125.086 144.816 125.086 142.944Z" fill="#FEC5BB"/>
<path d="M120.374 174.074H124.992L127.189 156.214H120.373L120.374 174.074Z" fill="#A0616A"/>
<path d="M133.898 178.373L119.385 178.374L119.384 172.751L128.291 172.751C129.778 172.751 131.204 173.343 132.256 174.397C133.308 175.452 133.898 176.882 133.898 178.373L133.898 178.373Z" fill="#2F2E41"/>
<path d="M127.583 171.49L131.99 170.104L128.753 152.404L122.25 154.45L127.583 171.49Z" fill="#A0616A"/>
<path d="M141.771 171.532L127.923 175.889L126.244 170.525L134.742 167.851C136.161 167.404 137.699 167.541 139.017 168.232C140.335 168.922 141.326 170.109 141.771 171.532Z" fill="#2F2E41"/>
<path d="M124.493 163.27L116.045 141.036C114.149 141.482 98.2552 145.008 92.9318 139.325C91.1074 137.377 90.7516 134.556 91.8742 130.938L94.981 127.023L95.0775 127.029C96.2522 127.091 123.869 128.643 125.763 136.995C127.359 144.037 130.274 157.165 131.129 161.021C131.216 161.421 131.157 161.838 130.962 162.197C130.768 162.557 130.451 162.834 130.069 162.979L126.672 164.256C126.483 164.328 126.282 164.364 126.08 164.364C125.736 164.364 125.4 164.259 125.117 164.064C124.833 163.869 124.616 163.592 124.493 163.27Z" fill="#2F2E41"/>
<path d="M119.596 165.914L111.148 143.679C109.253 144.125 93.3587 147.651 88.0353 141.969C86.2109 140.021 85.8552 137.199 86.9778 133.581L90.0845 129.667L90.181 129.672C91.3557 129.734 118.973 131.286 120.866 139.639C122.462 146.68 125.377 159.809 126.233 163.665C126.32 164.064 126.26 164.482 126.066 164.841C125.871 165.2 125.554 165.478 125.173 165.623L121.775 166.9C121.586 166.971 121.386 167.008 121.183 167.008C120.839 167.008 120.504 166.903 120.22 166.708C119.937 166.512 119.719 166.235 119.596 165.914Z" fill="#2F2E41"/>
<path d="M131.012 112.615C130.887 112.782 130.776 112.959 130.679 113.144L112.101 115.106L109.426 111.43L103.365 114.752L108.618 123.673L131.402 117.848C131.977 118.41 132.709 118.783 133.501 118.918C134.292 119.053 135.106 118.943 135.833 118.602C136.561 118.262 137.168 117.708 137.574 117.013C137.98 116.319 138.165 115.517 138.105 114.714C138.045 113.911 137.743 113.146 137.239 112.52C136.734 111.893 136.052 111.436 135.282 111.208C134.512 110.98 133.691 110.993 132.928 111.244C132.165 111.495 131.497 111.973 131.012 112.615V112.615Z" fill="#A0616A"/>
<path d="M86.8592 134.755C86.6049 134.572 86.4064 134.321 86.2854 134.031C86.1645 133.741 86.126 133.424 86.1741 133.113C87.2222 126.185 86.0163 116.261 84.8201 109.156C84.5752 107.714 84.6705 106.235 85.0983 104.837C85.5261 103.439 86.2745 102.161 87.2837 101.105C88.2928 100.049 89.5345 99.2445 90.9095 98.7563C92.2844 98.2681 93.7542 98.1095 95.2012 98.2933C96.4602 98.46 97.7073 98.7065 98.9352 99.0313C100.975 99.5463 102.779 100.742 104.051 102.421C105.323 104.101 105.987 106.164 105.935 108.272C105.756 115.129 107.144 123.684 107.75 127.043C107.791 127.274 107.784 127.511 107.73 127.739C107.676 127.967 107.576 128.182 107.436 128.369C107.298 128.555 107.123 128.709 106.922 128.823C106.722 128.937 106.499 129.008 106.27 129.03C99.5617 129.717 92.3278 132.997 88.6128 134.89C88.3741 135.014 88.1095 135.079 87.8408 135.08C87.4876 135.079 87.1439 134.965 86.8592 134.755Z" fill="#FEC5BB"/>
<path d="M104.966 116.887C104.759 116.805 104.57 116.683 104.41 116.528C104.25 116.372 104.122 116.187 104.034 115.981L100.293 107.317C100.067 106.793 99.9455 106.23 99.9361 105.659C99.9268 105.089 100.03 104.522 100.239 103.991C100.448 103.461 100.76 102.976 101.156 102.567C101.552 102.157 102.024 101.829 102.547 101.602C103.069 101.376 103.631 101.254 104.2 101.245C104.769 101.237 105.334 101.34 105.863 101.55C106.392 101.761 106.875 102.073 107.284 102.471C107.692 102.868 108.018 103.342 108.244 103.866L111.985 112.531C112.163 112.945 112.17 113.412 112.005 113.831C111.839 114.25 111.515 114.586 111.103 114.766L106.263 116.866C106.059 116.956 105.84 117.003 105.617 117.007C105.394 117.011 105.173 116.97 104.966 116.887H104.966Z" fill="#FEC5BB"/>
<path d="M113.309 111.859C113.184 112.027 113.073 112.204 112.976 112.389L94.3975 114.351L91.7232 110.675L85.6621 113.996L90.9148 122.918L113.699 117.093C114.274 117.655 115.006 118.028 115.798 118.163C116.589 118.297 117.403 118.187 118.13 117.847C118.858 117.507 119.465 116.953 119.871 116.258C120.276 115.563 120.462 114.761 120.402 113.959C120.342 113.156 120.04 112.391 119.535 111.764C119.031 111.138 118.349 110.681 117.579 110.453C116.809 110.225 115.988 110.237 115.225 110.489C114.462 110.74 113.794 111.218 113.309 111.859V111.859Z" fill="#A0616A"/>
<path d="M87.2611 117.265C87.0538 117.183 86.8647 117.061 86.7047 116.905C86.5448 116.75 86.4172 116.564 86.3293 116.359L82.5883 107.694C82.3618 107.171 82.2404 106.608 82.2311 106.037C82.2217 105.466 82.3246 104.9 82.5339 104.369C82.7432 103.838 83.0547 103.354 83.4506 102.944C83.8466 102.534 84.3193 102.207 84.8416 101.98C85.3639 101.753 85.9257 101.632 86.4948 101.623C87.0639 101.614 87.6291 101.718 88.1582 101.928C88.6874 102.138 89.17 102.451 89.5785 102.848C89.987 103.246 90.3134 103.72 90.539 104.244L94.2801 112.909C94.4581 113.322 94.4651 113.79 94.2998 114.209C94.1344 114.628 93.8101 114.964 93.3979 115.143L88.5583 117.244C88.3542 117.333 88.1344 117.381 87.9118 117.385C87.6891 117.388 87.4679 117.347 87.2611 117.265H87.2611Z" fill="#FEC5BB"/>
<path d="M94.5115 95.3456C99.6211 95.3456 103.763 91.1925 103.763 86.0694C103.763 80.9464 99.6211 76.7933 94.5115 76.7933C89.4019 76.7933 85.2598 80.9464 85.2598 86.0694C85.2598 91.1925 89.4019 95.3456 94.5115 95.3456Z" fill="#A0616A"/>
<path d="M87.8981 92.4358C87.8584 92.3194 87.8458 92.1954 87.8613 92.0733C87.8768 91.9513 87.92 91.8344 87.9874 91.7316C88.0549 91.6288 88.145 91.5429 88.2507 91.4804C88.3565 91.4179 88.475 91.3806 88.5974 91.3711C88.848 91.3848 89.0932 91.4492 89.3182 91.5606C89.5433 91.6719 89.7435 91.8278 89.9068 92.0188C90.2416 92.4059 90.6314 92.7415 91.0636 93.0148C91.5112 93.241 92.1182 93.2088 92.3733 92.7775C92.6129 92.3726 92.4487 91.8303 92.3037 91.36C91.9346 90.1632 91.7281 88.9221 91.6897 87.67C91.648 86.2725 91.8446 84.814 92.6163 83.724C93.6122 82.3173 95.393 81.7832 97.0782 81.8219C98.7635 81.8606 100.421 82.3822 102.091 82.712C102.667 82.8258 103.345 82.884 103.73 82.4362C104.14 81.96 103.989 81.1893 103.815 80.5464C103.363 78.878 102.883 77.1531 101.832 75.8057C100.695 74.4056 99.0719 73.4892 97.2885 73.2412C95.5764 73.0285 93.8385 73.2264 92.2175 73.8184C89.5765 74.653 87.2526 76.2762 85.5566 78.4709C83.8083 80.8048 83.0529 83.7379 83.4555 86.6288C83.8488 89.1466 85.1795 91.4213 87.1793 92.9944L87.8981 92.4358Z" fill="#2F2E41"/>
<path d="M52.5731 114.767C53.0384 109.742 54.3238 104.828 56.3778 100.22C56.9502 98.9381 57.5803 97.6841 58.268 96.4584C58.3025 96.3943 58.3108 96.3193 58.2912 96.2491C58.2715 96.179 58.2255 96.1193 58.1628 96.0825C58.1001 96.0458 58.0256 96.0349 57.955 96.0521C57.8844 96.0694 57.8233 96.1135 57.7845 96.175C55.2836 100.64 53.5316 105.486 52.5984 110.52C52.3388 111.926 52.1437 113.342 52.0131 114.767C51.9799 115.127 52.5401 115.125 52.5731 114.767Z" fill="#3F3D56"/>
<path d="M59.6224 97.3588C61.581 97.3588 63.1687 95.7669 63.1687 93.8032C63.1687 91.8395 61.581 90.2476 59.6224 90.2476C57.6639 90.2476 56.0762 91.8395 56.0762 93.8032C56.0762 95.7669 57.6639 97.3588 59.6224 97.3588Z" fill="#FEC5BB"/>
<path d="M52.9345 114.862C53.2364 111.602 54.0703 108.414 55.4028 105.425C55.7742 104.593 56.1829 103.779 56.6291 102.984C56.6514 102.942 56.6568 102.894 56.6441 102.848C56.6313 102.803 56.6015 102.764 56.5608 102.74C56.5201 102.716 56.4718 102.709 56.426 102.72C56.3802 102.732 56.3406 102.76 56.3154 102.8C54.6929 105.696 53.5563 108.84 52.9509 112.106C52.7825 113.019 52.656 113.937 52.5712 114.862C52.5497 115.095 52.9131 115.094 52.9345 114.862Z" fill="#3F3D56"/>
<path d="M57.5096 103.568C58.7802 103.568 59.8102 102.535 59.8102 101.261C59.8102 99.9874 58.7802 98.9547 57.5096 98.9547C56.239 98.9547 55.209 99.9874 55.209 101.261C55.209 102.535 56.239 103.568 57.5096 103.568Z" fill="#FEC5BB"/>
<path d="M52.4765 114.644C50.7147 111.887 49.4164 108.859 48.6334 105.681C48.4159 104.796 48.2392 103.902 48.1032 103C48.0953 102.954 48.0697 102.912 48.0317 102.884C47.9938 102.856 47.9465 102.844 47.8998 102.85C47.853 102.856 47.8106 102.881 47.7814 102.918C47.7521 102.955 47.7384 103.002 47.7431 103.049C48.2405 106.333 49.273 109.513 50.7991 112.461C51.2258 113.284 51.6895 114.087 52.19 114.868C52.3162 115.065 52.6018 114.84 52.4765 114.644Z" fill="#3F3D56"/>
<path d="M47.7401 103.406C49.0107 103.406 50.0407 102.373 50.0407 101.099C50.0407 99.8255 49.0107 98.7927 47.7401 98.7927C46.4695 98.7927 45.4395 99.8255 45.4395 101.099C45.4395 102.373 46.4695 103.406 47.7401 103.406Z" fill="#FEC5BB"/>
<path d="M45.4141 116.685V112.153C45.4146 111.702 45.5933 111.27 45.9111 110.952C46.2289 110.633 46.6597 110.454 47.1091 110.453H57.6563C58.1057 110.454 58.5365 110.633 58.8543 110.952C59.1721 111.27 59.3508 111.702 59.3513 112.153V116.685C59.3508 117.136 59.1721 117.568 58.8543 117.886C58.5365 118.205 58.1057 118.384 57.6563 118.385H47.1091C46.6597 118.384 46.2289 118.205 45.9111 117.886C45.5933 117.568 45.4146 117.136 45.4141 116.685Z" fill="#FEC5BB"/>
<path d="M139.965 115.374H110.207C109.479 115.374 108.889 115.966 108.889 116.696C108.889 117.426 109.479 118.018 110.207 118.018H139.965C140.693 118.018 141.283 117.426 141.283 116.696C141.283 115.966 140.693 115.374 139.965 115.374Z" fill="#FEC5BB"/>
<path d="M159.928 118.018H126.404C125.754 118.017 125.132 117.758 124.673 117.298C124.214 116.838 123.956 116.214 123.955 115.563V97.0566C123.956 96.4057 124.214 95.7818 124.673 95.3215C125.132 94.8613 125.754 94.6024 126.404 94.6017H159.928C160.577 94.6024 161.2 94.8613 161.659 95.3215C162.118 95.7818 162.376 96.4057 162.377 97.0566V115.563C162.376 116.214 162.118 116.838 161.659 117.298C161.2 117.758 160.577 118.017 159.928 118.018Z" fill="#FEC5BB"/>
<path d="M143.166 108.576C144.415 108.576 145.426 107.561 145.426 106.31C145.426 105.058 144.415 104.044 143.166 104.044C141.918 104.044 140.906 105.058 140.906 106.31C140.906 107.561 141.918 108.576 143.166 108.576Z" fill="white"/>
<path d="M245.248 142.944C245.248 140.024 234.286 137.657 220.764 137.657C207.241 137.657 196.279 140.024 196.279 142.944C196.279 144.816 200.786 146.459 207.58 147.399V176.369C207.58 177.02 207.838 177.644 208.297 178.105C208.756 178.565 209.379 178.824 210.028 178.824C210.678 178.824 211.3 178.565 211.76 178.105C212.219 177.644 212.477 177.02 212.477 176.369V147.921C215.065 148.122 217.855 148.232 220.764 148.232C223.673 148.232 226.462 148.122 229.051 147.921V176.369C229.051 177.02 229.309 177.644 229.768 178.105C230.227 178.565 230.85 178.824 231.499 178.824C232.149 178.824 232.771 178.565 233.231 178.105C233.69 177.644 233.948 177.02 233.948 176.369V147.399C240.741 146.459 245.248 144.816 245.248 142.944Z" fill="#FEC5BB"/>
<path d="M223.469 94.5479C229.294 94.5479 234.016 89.8133 234.016 83.9729C234.016 78.1325 229.294 73.3979 223.469 73.3979C217.644 73.3979 212.922 78.1325 212.922 83.9729C212.922 89.8133 217.644 94.5479 223.469 94.5479Z" fill="#2F2E41"/>
<path d="M197.223 174.452H192.605L190.408 156.592H197.224L197.223 174.452Z" fill="#FFB8B8"/>
<path d="M189.305 173.129H198.211V178.751H183.697C183.697 178.013 183.842 177.282 184.124 176.6C184.406 175.917 184.819 175.298 185.34 174.775C185.86 174.253 186.479 173.839 187.159 173.557C187.839 173.274 188.568 173.129 189.305 173.129Z" fill="#2F2E41"/>
<path d="M190.013 171.868L185.607 170.481L188.844 152.781L195.347 154.827L190.013 171.868Z" fill="#FFB8B8"/>
<path d="M182.856 168.229L191.354 170.902L189.675 176.267L175.827 171.91C176.047 171.205 176.404 170.551 176.877 169.985C177.349 169.419 177.928 168.951 178.581 168.609C179.234 168.268 179.947 168.058 180.681 167.993C181.414 167.927 182.154 168.008 182.856 168.229Z" fill="#2F2E41"/>
<path d="M191.516 164.742C191.314 164.742 191.113 164.705 190.924 164.634L187.527 163.357C187.145 163.212 186.828 162.934 186.634 162.575C186.439 162.216 186.38 161.798 186.467 161.399C187.322 157.543 190.237 144.414 191.833 137.373C193.727 129.02 221.344 127.468 222.518 127.406L222.615 127.401L225.722 131.315C226.844 134.933 226.488 137.755 224.664 139.703C219.341 145.386 203.447 141.859 201.551 141.413L193.103 163.647C192.98 163.969 192.763 164.246 192.479 164.442C192.196 164.637 191.86 164.742 191.516 164.742Z" fill="#2F2E41"/>
<path d="M196.413 167.386C196.21 167.386 196.01 167.349 195.821 167.277L192.423 166C192.042 165.855 191.725 165.578 191.53 165.219C191.336 164.859 191.276 164.442 191.363 164.042C192.218 160.186 195.134 147.058 196.73 140.016C198.623 131.664 226.24 130.112 227.415 130.05L227.511 130.045L230.618 133.959C231.741 137.577 231.385 140.399 229.561 142.347C224.237 148.029 208.343 144.503 206.448 144.057L198 166.291C197.877 166.613 197.659 166.89 197.376 167.085C197.092 167.281 196.757 167.385 196.413 167.386Z" fill="#2F2E41"/>
<path d="M186.582 112.992C186.707 113.16 186.819 113.337 186.916 113.522L205.494 115.484L208.168 111.808L214.229 115.129L208.977 124.051L186.192 118.226C185.617 118.788 184.885 119.161 184.094 119.296C183.302 119.43 182.489 119.32 181.761 118.98C181.034 118.64 180.426 118.086 180.021 117.391C179.615 116.696 179.43 115.894 179.49 115.092C179.549 114.289 179.852 113.524 180.356 112.897C180.86 112.271 181.543 111.814 182.313 111.586C183.083 111.358 183.904 111.37 184.666 111.621C185.429 111.873 186.097 112.351 186.582 112.992Z" fill="#FFB8B8"/>
<path d="M229.756 135.457C229.487 135.456 229.223 135.392 228.984 135.268C225.269 133.374 218.035 130.094 211.327 129.408C211.098 129.385 210.875 129.315 210.674 129.201C210.474 129.087 210.299 128.932 210.161 128.747C210.021 128.559 209.92 128.345 209.866 128.117C209.812 127.889 209.806 127.652 209.847 127.421C210.452 124.061 211.841 115.506 211.662 108.65C211.609 106.542 212.274 104.478 213.546 102.799C214.818 101.119 216.622 99.9239 218.662 99.4089C219.889 99.0842 221.137 98.8377 222.396 98.6709C223.843 98.4871 225.312 98.6457 226.687 99.1339C228.062 99.6222 229.304 100.426 230.313 101.482C231.322 102.538 232.071 103.817 232.499 105.215C232.926 106.613 233.022 108.092 232.777 109.534C231.58 116.639 230.375 126.563 231.423 133.491C231.471 133.801 231.432 134.119 231.311 134.409C231.19 134.699 230.992 134.949 230.738 135.133C230.453 135.343 230.109 135.456 229.756 135.457Z" fill="#FEC5BB"/>
<path d="M212.006 117.385C211.775 117.384 211.546 117.337 211.333 117.244L206.494 115.143C206.081 114.964 205.757 114.628 205.592 114.209C205.426 113.79 205.433 113.322 205.611 112.909L209.353 104.244C209.578 103.72 209.905 103.246 210.313 102.848C210.722 102.451 211.204 102.138 211.733 101.928C212.262 101.718 212.828 101.614 213.397 101.623C213.966 101.632 214.528 101.753 215.05 101.98C215.572 102.207 216.045 102.534 216.441 102.944C216.837 103.354 217.148 103.838 217.358 104.369C217.567 104.9 217.67 105.466 217.66 106.037C217.651 106.608 217.53 107.171 217.303 107.694L213.562 116.359C213.431 116.663 213.213 116.923 212.937 117.105C212.66 117.287 212.337 117.384 212.006 117.385Z" fill="#FEC5BB"/>
<path d="M223.084 95.7232C228.193 95.7232 232.335 91.5701 232.335 86.4471C232.335 81.324 228.193 77.1709 223.084 77.1709C217.974 77.1709 213.832 81.324 213.832 86.4471C213.832 91.5701 217.974 95.7232 223.084 95.7232Z" fill="#FFB8B8"/>
<path d="M213.666 81.8896C218.048 84.5718 222.989 86.204 228.103 86.6591L226.581 84.8309C227.689 85.2417 228.855 85.4738 230.036 85.5187C231.215 85.5003 232.45 85.0451 233.119 84.0715C233.418 83.5876 233.595 83.0384 233.636 82.4709C233.677 81.9034 233.581 81.3343 233.355 80.8123C232.891 79.771 232.169 78.8661 231.258 78.1836C229.643 76.9026 227.737 76.0421 225.71 75.6789C223.682 75.3156 221.597 75.4608 219.639 76.1016C218.297 76.504 217.094 77.2775 216.169 78.3335C215.292 79.4183 213.604 80.3849 214.053 81.7068L213.666 81.8896Z" fill="#2F2E41"/>
<path d="M224.639 74.4037C221.721 71.4368 218.19 69.1474 214.295 67.6964C211.794 66.7676 209.072 66.1937 206.458 66.7212C203.843 67.2487 201.371 69.0621 200.641 71.6339C200.045 73.737 200.661 76.0013 201.586 77.981C202.512 79.9607 203.748 81.7965 204.496 83.8501C205.26 85.9455 205.49 88.1989 205.164 90.4058C204.839 92.6128 203.969 94.7033 202.634 96.4877C201.299 98.2721 199.54 99.6939 197.517 100.624C195.495 101.554 193.273 101.963 191.053 101.813C193.621 102.159 195.989 103.369 198.5 104.013C201.011 104.657 203.974 104.614 205.84 102.81C207.814 100.902 207.854 97.7995 207.758 95.0518L207.333 82.798C207.26 80.715 207.199 78.5652 207.948 76.6209C208.697 74.6767 210.478 72.9742 212.556 72.9919C214.132 73.0053 215.526 73.9622 216.79 74.9059C218.053 75.8497 219.391 76.8565 220.96 76.9969C222.529 77.1373 224.321 75.9729 224.204 74.3976" fill="#2F2E41"/>
<path d="M181.635 106.16L202.937 106.665L206.023 129.498L186.35 129.94L181.635 106.16Z" fill="#E6E6E6"/>
<path d="M204.287 112.237C204.412 112.404 204.524 112.581 204.621 112.766L223.199 114.729L225.873 111.052L231.934 114.374L226.682 123.295L203.897 117.47C203.322 118.032 202.59 118.406 201.799 118.54C201.007 118.675 200.194 118.565 199.466 118.225C198.739 117.884 198.132 117.33 197.726 116.636C197.32 115.941 197.135 115.139 197.195 114.336C197.254 113.534 197.557 112.768 198.061 112.142C198.565 111.516 199.248 111.058 200.018 110.83C200.788 110.602 201.609 110.615 202.371 110.866C203.134 111.117 203.802 111.596 204.287 112.237V112.237Z" fill="#FFB8B8"/>
<path d="M229.711 117.763C229.48 117.762 229.251 117.714 229.038 117.622L224.199 115.521C223.787 115.342 223.462 115.006 223.297 114.587C223.131 114.168 223.139 113.7 223.316 113.286L227.058 104.622C227.283 104.098 227.61 103.624 228.018 103.226C228.427 102.829 228.909 102.516 229.438 102.306C229.967 102.096 230.533 101.992 231.102 102.001C231.671 102.01 232.233 102.131 232.755 102.358C233.277 102.584 233.75 102.912 234.146 103.322C234.542 103.732 234.853 104.216 235.063 104.747C235.272 105.277 235.375 105.844 235.366 106.415C235.356 106.985 235.235 107.548 235.008 108.072L231.267 116.737C231.136 117.041 230.918 117.3 230.642 117.482C230.366 117.665 230.042 117.762 229.711 117.763Z" fill="#FEC5BB"/>
<path d="M185.919 117.64H35.9992C35.3499 117.64 34.7271 117.899 34.2679 118.359C33.8087 118.819 33.5508 119.444 33.5508 120.095C33.5508 120.746 33.8087 121.37 34.2679 121.831C34.7271 122.291 35.3499 122.55 35.9992 122.55H40.3311V175.991C40.3311 176.642 40.589 177.267 41.0482 177.727C41.5074 178.188 42.1302 178.446 42.7795 178.446C43.4289 178.446 44.0517 178.188 44.5108 177.727C44.97 177.267 45.228 176.642 45.228 175.991V127.267L72.6773 177.15C73.0027 177.712 73.5373 178.122 74.1639 178.29C74.7905 178.458 75.4578 178.369 76.0195 178.044C76.5811 177.719 76.9911 177.184 77.1596 176.556C77.3281 175.928 77.2412 175.259 76.9181 174.695L48.224 122.55H179.327V122.582L150.651 174.695C150.326 175.259 150.238 175.929 150.406 176.558C150.574 177.187 150.984 177.723 151.547 178.048C152.109 178.374 152.777 178.462 153.405 178.294C154.032 178.125 154.567 177.714 154.891 177.15L179.327 132.743V175.991C179.327 176.642 179.585 177.267 180.044 177.727C180.504 178.188 181.126 178.446 181.776 178.446C182.425 178.446 183.048 178.188 183.507 177.727C183.966 177.267 184.224 176.642 184.224 175.991V123.844L184.936 122.55H185.919C186.569 122.55 187.191 122.291 187.65 121.831C188.11 121.37 188.368 120.746 188.368 120.095C188.368 119.444 188.11 118.819 187.65 118.359C187.191 117.899 186.569 117.64 185.919 117.64Z" fill="#3F3D56"/>
<path d="M278.552 179H0.449167C0.330439 179 0.216695 178.952 0.132863 178.868C0.0490319 178.784 0.00195312 178.669 0.00195312 178.55C0.00195312 178.431 0.0490319 178.317 0.132863 178.233C0.216695 178.148 0.330439 178.101 0.449167 178.101H278.552C278.671 178.101 278.785 178.148 278.869 178.232C278.953 178.317 279.001 178.431 279.001 178.55C279.001 178.67 278.953 178.784 278.869 178.868C278.785 178.953 278.671 179 278.552 179Z" fill="#3F3D56"/>
</g>
<defs>
<clipPath id="clip0">
<rect width="279" height="179" fill="white"/>
</clipPath>
</defs>
</svg>
