<svg width="239" height="121" viewBox="0 0 239 121" fill="none" xmlns="http://www.w3.org/2000/svg">
<path d="M51.4308 109.751C56.0007 109.751 59.7053 102.232 59.7053 92.9576C59.7053 83.683 56.0007 76.1645 51.4308 76.1645C46.8609 76.1645 43.1562 83.683 43.1562 92.9576C43.1562 102.232 46.8609 109.751 51.4308 109.751Z" fill="#FAE1DD"/>
<path d="M52.1971 120.445C48.8831 100.668 52.1638 80.9622 52.1973 80.7656L52.8419 80.8742C52.8086 81.0698 49.5467 100.672 52.8421 120.338L52.1971 120.445Z" fill="#2B2726"/>
<path d="M58.7168 89.3466L51.2344 93.3274L51.5428 93.9009L59.0252 89.9201L58.7168 89.3466Z" fill="#2B2726"/>
<path d="M43.6445 91.3407L43.3359 91.9142L50.8175 95.8972L51.1261 95.3238L43.6445 91.3407Z" fill="#2B2726"/>
<path d="M218.314 1.12082H204.752V47.8152H218.314V1.12082Z" fill="#2B2726"/>
<path d="M227.271 39.0311L194.285 0L128.075 0.602153L87.9102 39.5139L88.7217 40.0329H88.4319V120.97H227.182V40.0329L227.271 39.0311Z" fill="#2B2726"/>
<path d="M194.319 0.0831604L153.111 48.1363V120.97H227.181V38.9952L194.319 0.0831604Z" fill="#FEC5BB"/>
<path d="M197.971 80.6919H182.844V93.9908H197.971V80.6919Z" fill="#2B2726"/>
<path d="M197.971 57.6729H182.844V70.761H197.971V57.6729Z" fill="#2B2726"/>
<path d="M197.971 80.6919H182.844V93.9908H197.971V80.6919Z" fill="white"/>
<path d="M197.971 57.6729H182.844V70.761H197.971V57.6729Z" fill="white"/>
<path d="M142.84 118.597C142.84 118.597 143.164 111.838 149.812 112.624L142.84 118.597Z" fill="#FAE1DD"/>
<path d="M140.96 112.165C142.798 112.165 144.287 110.683 144.287 108.855C144.287 107.028 142.798 105.546 140.96 105.546C139.122 105.546 137.633 107.028 137.633 108.855C137.633 110.683 139.122 112.165 140.96 112.165Z" fill="#FEC5BB"/>
<path d="M141.359 114.428H140.42V120.968H141.359V114.428Z" fill="#FAE1DD"/>
<path d="M31.5512 99.9041C40.4893 99.9041 47.7352 85.1988 47.7352 67.0589C47.7352 48.9189 40.4893 34.2136 31.5512 34.2136C22.613 34.2136 15.3672 48.9189 15.3672 67.0589C15.3672 85.1988 22.613 99.9041 31.5512 99.9041Z" fill="#FEC5BB"/>
<path d="M33.3544 120.77C26.8812 82.1394 33.2891 43.6492 33.3546 43.2649L33.9992 43.3735C33.9339 43.7568 27.5449 82.1435 33.9994 120.664L33.3544 120.77Z" fill="#2B2726"/>
<path d="M45.9476 60.2701L31.3125 68.0563L31.6209 68.6298L46.256 60.8436L45.9476 60.2701Z" fill="#2B2726"/>
<path d="M16.1738 64.1705L15.8652 64.744L30.4981 72.5342L30.8067 71.9608L16.1738 64.1705Z" fill="#2B2726"/>
<path d="M69.8809 92.2363C82.1121 92.2363 92.0274 72.1132 92.0274 47.2901C92.0274 22.467 82.1121 2.3439 69.8809 2.3439C57.6497 2.3439 47.7344 22.467 47.7344 47.2901C47.7344 72.1132 57.6497 92.2363 69.8809 92.2363Z" fill="#FEC5BB"/>
<path d="M72.4671 120.77C63.6123 67.9265 72.3777 15.2756 72.4673 14.75L73.1119 14.8586C73.0225 15.3832 64.2759 67.9306 73.1121 120.664L72.4671 120.77Z" fill="#2B2726"/>
<path d="M89.6382 38.1057L69.6113 48.7605L69.9198 49.3341L89.9466 38.6793L89.6382 38.1057Z" fill="#2B2726"/>
<path d="M48.7832 43.4432L48.4746 44.0167L68.4987 54.6767L68.8073 54.1032L48.7832 43.4432Z" fill="#2B2726"/>
<path d="M239 120.434H0V121H239V120.434Z" fill="#2B2726"/>
<path d="M130.746 77.1631H115.619V90.462H130.746V77.1631Z" fill="#2B2726"/>
<path d="M130.746 54.1442H115.619V67.2322H130.746V54.1442Z" fill="#2B2726"/>
<path d="M130.746 77.1631H115.619V90.462H130.746V77.1631Z" fill="white"/>
<path d="M130.746 54.1442H115.619V67.2322H130.746V54.1442Z" fill="white"/>
</svg>
