<svg width="281" height="157" viewBox="0 0 281 157" fill="none" xmlns="http://www.w3.org/2000/svg">
<g clip-path="url(#clip0)">
<path d="M194.883 49.816H189.542C189.371 49.8165 189.205 49.7532 189.079 49.6383C188.952 49.5234 188.872 49.3654 188.856 49.1952L187.787 38.2629H196.638L195.569 49.195C195.553 49.3653 195.474 49.5234 195.347 49.6383C195.22 49.7531 195.055 49.8165 194.883 49.816Z" fill="#FAE1DD"/>
<path d="M196.624 39.6383H187.801C187.618 39.6381 187.443 39.5656 187.313 39.4367C187.184 39.3078 187.112 39.133 187.111 38.9507V37.3002C187.112 37.1179 187.184 36.9431 187.313 36.8142C187.443 36.6853 187.618 36.6128 187.801 36.6125H196.624C196.806 36.6128 196.982 36.6853 197.111 36.8142C197.24 36.9431 197.313 37.1179 197.313 37.3002V38.9507C197.313 39.133 197.24 39.3078 197.111 39.4367C196.982 39.5656 196.806 39.6381 196.624 39.6383Z" fill="#CCCCCC"/>
<path d="M132.395 38.0721H111.236V31.6639C117.922 27.0218 123.847 27.4253 131.64 32.0409L132.395 38.0721Z" fill="#FEC5BB"/>
<path d="M106.337 151.895L101.704 151.895L101.012 134.069L106.337 134.07L106.337 151.895Z" fill="#FFB8B8"/>
<path d="M107.518 156.374L92.582 156.374V156.185C92.582 155.424 92.7324 154.67 93.0245 153.966C93.3167 153.262 93.7449 152.623 94.2848 152.084C94.8246 151.546 95.4655 151.119 96.1709 150.827C96.8762 150.536 97.6322 150.386 98.3956 150.386H98.396L107.518 150.386L107.518 156.374Z" fill="#2F2E41"/>
<path d="M132.427 151.895L137.059 151.895L137.751 134.069L132.426 134.07L132.427 151.895Z" fill="#FFB8B8"/>
<path d="M131.246 150.386L140.369 150.386H140.369C141.132 150.386 141.888 150.536 142.594 150.827C143.299 151.119 143.94 151.546 144.48 152.084C145.02 152.623 145.448 153.262 145.74 153.966C146.032 154.67 146.183 155.424 146.183 156.185V156.374L131.246 156.374L131.246 150.386Z" fill="#2F2E41"/>
<path d="M132.55 149.61C132.163 149.609 131.789 149.477 131.487 149.236C131.186 148.995 130.975 148.659 130.89 148.282L119.408 98.3217C119.383 98.1948 119.314 98.0808 119.213 97.9998C119.112 97.9189 118.985 97.8762 118.855 97.8792H118.852C118.722 97.8768 118.595 97.9205 118.494 98.0025C118.393 98.0845 118.325 98.1996 118.301 98.3272L107.757 147.951C107.675 148.331 107.465 148.671 107.163 148.915C106.86 149.16 106.483 149.294 106.094 149.295H101.071C100.84 149.295 100.61 149.248 100.398 149.157C100.185 149.065 99.9931 148.931 99.8341 148.763C99.6752 148.594 99.5524 148.396 99.4733 148.178C99.3941 147.961 99.3604 147.73 99.3741 147.499L103.115 84.6028L104.62 84.1584L104.649 84.1588L134.218 84.4169L140.515 147.244C140.537 147.468 140.514 147.694 140.448 147.909C140.381 148.125 140.272 148.324 140.127 148.497C139.983 148.67 139.805 148.812 139.604 148.915C139.404 149.019 139.185 149.081 138.96 149.099L132.686 149.605C132.64 149.608 132.595 149.61 132.55 149.61Z" fill="#2F2E41"/>
<path d="M120.339 26.587C125.464 26.587 129.619 22.442 129.619 17.3287C129.619 12.2155 125.464 8.07043 120.339 8.07043C115.213 8.07043 111.059 12.2155 111.059 17.3287C111.059 22.442 115.213 26.587 120.339 26.587Z" fill="#FFB8B8"/>
<path d="M114.652 91.4987C113.024 91.5188 111.403 91.2911 109.843 90.8235C108.456 90.4063 107.17 89.7103 106.063 88.7784C104.956 87.8465 104.051 86.6985 103.406 85.4049C103.201 85.0156 103.156 84.5623 103.279 84.1404C104.303 80.6554 109.248 62.5408 106.093 48.1405C105.647 46.14 105.61 44.0706 105.984 42.0555C106.358 40.0405 107.134 38.1211 108.267 36.412C109.374 34.7162 110.812 33.2602 112.495 32.1308C114.178 31.0015 116.072 30.2219 118.064 29.8385L118.064 29.8381C118.587 29.7362 119.113 29.6526 119.628 29.5893C121.829 29.3189 124.063 29.5374 126.17 30.229C128.277 30.9206 130.205 32.0683 131.816 33.59C133.474 35.1415 134.768 37.0396 135.605 39.1484C136.443 41.2572 136.802 43.5246 136.658 45.7882L134.233 84.6156C134.216 84.9067 134.124 85.1884 133.965 85.4332C133.806 85.6779 133.586 85.8772 133.327 86.0115C130.533 87.4718 122.143 91.4987 114.652 91.4987Z" fill="#3F3D56"/>
<path d="M130.823 10.5138C129.859 8.09677 128.093 6.08276 125.82 4.80789C123.547 3.53302 120.905 3.07441 118.334 3.50862L121.26 5.8675C117.625 5.98963 113.798 5.72995 111.202 8.2722C112.029 8.24933 113.112 10.0127 113.938 9.98982C112.393 10.0203 110.992 11.1033 110.31 12.4864C109.678 13.9075 109.53 15.4959 109.889 17.0088C110.194 18.52 112.522 22.0605 113.148 23.4697C113.041 19.7869 120.308 11.0023 123.857 11.9191C122.054 12.5865 120.489 13.7716 119.36 15.3249C121.775 14.1094 124.505 13.6636 127.182 14.0482C127.793 14.188 128.424 14.2232 129.047 14.1523C129.429 14.077 129.785 13.9052 130.081 13.6535C130.377 13.4017 130.604 13.0783 130.739 12.7143C130.875 12.3502 130.914 11.9576 130.854 11.574C130.794 11.1903 130.637 10.8284 130.396 10.5228L130.823 10.5138Z" fill="#2F2E41"/>
<path d="M114.013 89.1672C113.779 89.1667 113.547 89.1179 113.332 89.0238L95.7246 81.3565C95.3506 81.1965 95.047 80.9072 94.8698 80.5418C94.6925 80.1763 94.6535 79.7593 94.7599 79.3674L106.416 35.4379C106.633 34.6205 107.011 33.8544 107.528 33.1845C108.045 32.5147 108.691 31.9544 109.428 31.5366C110.164 31.1187 110.977 30.8517 111.819 30.7512C112.66 30.6506 113.513 30.7185 114.328 30.9509L118.989 32.278L115.708 87.5694C115.691 87.8422 115.609 88.1069 115.468 88.3411C115.326 88.5754 115.131 88.7722 114.897 88.9151C114.632 89.0792 114.325 89.1665 114.013 89.1672Z" fill="#FEC5BB"/>
<path d="M146.602 79.367L145.827 76.4531L144.705 72.2162L144.165 70.1844L143.043 65.9588L134.946 35.4371C134.73 34.6194 134.352 33.8529 133.835 33.1827C133.318 32.5124 132.672 31.952 131.935 31.5341C131.198 31.1163 130.385 30.8495 129.544 30.7495C128.702 30.6494 127.849 30.718 127.034 30.9514L122.375 32.2783L124.684 71.1683L124.922 75.228L125.073 77.7875V77.7913L125.315 81.8284L125.655 87.5694C125.682 88.0005 125.873 88.405 126.188 88.7016C126.502 88.9981 126.918 89.1647 127.351 89.1677C127.585 89.1663 127.817 89.1176 128.031 89.0244L145.638 81.3573C146.013 81.1973 146.316 80.9077 146.494 80.542C146.671 80.1762 146.709 79.7589 146.602 79.367Z" fill="#FEC5BB"/>
<path d="M144.165 70.1845L124.922 75.2281L124.684 71.1683L143.043 65.9589L144.165 70.1845Z" fill="#CCCCCC"/>
<path d="M145.827 76.4531L125.314 81.8284L125.072 77.7913V77.7875L144.705 72.2162L145.827 76.4531Z" fill="#CCCCCC"/>
<path d="M116.443 72.0429L116.205 76.0273L97.332 70.4182L98.4387 66.2491L116.443 72.0429Z" fill="#CCCCCC"/>
<path d="M116.049 78.6508L96.7907 72.45L95.6836 76.6303L115.815 82.6125L116.049 78.6508Z" fill="#CCCCCC"/>
<path d="M97.1274 82.8176C97.7015 82.6681 98.2359 82.3948 98.6927 82.017C99.1496 81.6392 99.5178 81.166 99.7716 80.6309C100.025 80.0957 100.158 79.5116 100.161 78.9196C100.164 78.3276 100.037 77.7421 99.7887 77.2045L108.842 48.8481L102.422 47.5067L94.1218 75.308C93.2441 75.7842 92.5719 76.5649 92.2327 77.5024C91.8935 78.4399 91.9107 79.469 92.2812 80.3947C92.6517 81.3203 93.3496 82.0782 94.2428 82.5248C95.136 82.9713 96.1623 83.0755 97.1274 82.8176Z" fill="#FFB8B8"/>
<path d="M109.092 34.9078C110.936 35.0954 111.972 37.1633 111.514 39.7381L109.315 52.0939C109.15 53.0201 108.386 53.7535 107.751 53.5951L100.311 51.7398C99.7383 51.597 99.5275 50.7856 99.8519 49.9736L104.318 38.7957C105.288 36.3682 107.305 34.7259 109.092 34.9078Z" fill="#3F3D56"/>
<path d="M120.304 2.12643e-10C123.445 0.000336084 126.462 1.22022 128.717 3.40134C130.972 5.58246 132.287 8.55355 132.385 11.6855H134.662C134.862 11.6855 135.054 11.7649 135.196 11.9063C135.338 12.0477 135.417 12.2394 135.417 12.4394V15.455C135.417 15.6549 135.338 15.8467 135.196 15.9881C135.054 16.1294 134.862 16.2089 134.662 16.2089H108.969C108.768 16.2089 108.576 16.1294 108.434 15.9881C108.293 15.8467 108.213 15.6549 108.213 15.455V12.0624C108.213 10.4783 108.526 8.90979 109.133 7.44631C109.741 5.98283 110.631 4.65308 111.754 3.53298C112.877 2.41288 114.21 1.52436 115.677 0.918173C117.144 0.311985 118.716 -9.40522e-06 120.304 2.12643e-10Z" fill="#FEC5BB"/>
<path d="M121.749 74.5627H116.408C116.236 74.5632 116.071 74.4999 115.944 74.385C115.817 74.2702 115.738 74.1121 115.721 73.9419L114.652 63.0096H123.504L122.435 73.9418C122.419 74.112 122.339 74.2701 122.212 74.385C122.085 74.4999 121.92 74.5632 121.749 74.5627Z" fill="#FAE1DD"/>
<path d="M123.491 64.385H114.668C114.485 64.3848 114.31 64.3123 114.181 64.1834C114.051 64.0545 113.979 63.8797 113.979 63.6974V62.0469C113.979 61.8646 114.051 61.6898 114.181 61.5609C114.31 61.432 114.485 61.3595 114.668 61.3593H123.491C123.674 61.3595 123.849 61.432 123.978 61.5609C124.107 61.6898 124.18 61.8646 124.18 62.0469V63.6974C124.18 63.8797 124.107 64.0545 123.978 64.1834C123.849 64.3123 123.674 64.3848 123.491 64.385Z" fill="#CCCCCC"/>
<path d="M119.194 68.6999C119.401 68.7238 119.607 68.7641 119.808 68.8202L134.032 56.6507L133.201 52.1856L139.791 50.053L142.033 57.8149C142.215 58.4419 142.187 59.1107 141.955 59.7207C141.722 60.3308 141.298 60.8492 140.745 61.1981L122.731 72.5709C122.744 73.3743 122.511 74.1626 122.064 74.8308C121.616 75.4991 120.976 76.0157 120.227 76.3119C119.478 76.6081 118.657 76.6698 117.872 76.489C117.088 76.3081 116.377 75.8932 115.834 75.2993C115.291 74.7055 114.943 73.961 114.835 73.1647C114.727 72.3684 114.864 71.5582 115.229 70.8418C115.594 70.1254 116.168 69.5367 116.876 69.1541C117.585 68.7715 118.393 68.6131 119.194 68.6999V68.6999Z" fill="#FFB8B8"/>
<path d="M134.068 35.9284C136.037 35.3784 138.005 36.8737 138.664 39.4212L141.828 51.6457C142.065 52.5621 141.604 53.536 140.885 53.6392L132.456 54.8487C131.808 54.9417 131.237 54.2782 131.213 53.4044L130.886 41.3747C130.814 38.7622 132.159 36.4616 134.068 35.9284Z" fill="#3F3D56"/>
<path d="M247.356 114.016C243.475 108.867 240.408 103.155 238.259 97.0793C238.135 96.7159 238.144 96.3202 238.284 95.9627C238.425 95.6052 238.688 95.309 239.027 95.127L252.306 88.0284C252.521 87.9127 252.759 87.8474 253.003 87.8375C253.247 87.8276 253.49 87.8734 253.714 87.9714C253.941 88.0701 254.144 88.2193 254.305 88.4077C254.466 88.5961 254.582 88.8186 254.644 89.0585C256.189 94.9131 259.095 100.323 263.125 104.849C263.29 105.034 263.412 105.253 263.48 105.491C263.548 105.729 263.561 105.98 263.517 106.224C263.475 106.464 263.378 106.691 263.235 106.888C263.092 107.085 262.905 107.247 262.69 107.361L249.41 114.46C249.071 114.641 248.678 114.695 248.302 114.614C247.925 114.533 247.59 114.321 247.356 114.016Z" fill="#CCCCCC"/>
<path d="M248.264 113.337C248.335 113.426 248.435 113.487 248.547 113.51C248.659 113.533 248.776 113.517 248.877 113.463L262.156 106.365C262.22 106.331 262.276 106.283 262.319 106.224C262.362 106.166 262.39 106.098 262.402 106.026C262.416 105.951 262.412 105.873 262.391 105.799C262.37 105.726 262.332 105.658 262.28 105.601C258.131 100.941 255.14 95.3724 253.549 89.3452C253.531 89.2708 253.495 89.2016 253.445 89.143C253.396 89.0845 253.333 89.0382 253.263 89.0079C253.196 88.9782 253.124 88.9643 253.051 88.9673C252.978 88.9703 252.907 88.9901 252.843 89.0252L239.564 96.1237C239.463 96.178 239.385 96.2655 239.342 96.3713C239.299 96.4771 239.295 96.5945 239.33 96.7032C241.44 102.67 244.453 108.28 248.264 113.337V113.337Z" fill="white"/>
<path d="M253.178 98.1588L245.946 101.344C245.67 101.465 245.359 101.472 245.078 101.363C244.798 101.255 244.572 101.04 244.451 100.766L244.272 100.362C244.151 100.087 244.144 99.7761 244.252 99.4966C244.361 99.217 244.576 98.9918 244.851 98.8705L252.084 95.6854C252.359 95.5646 252.671 95.5576 252.951 95.666C253.231 95.7743 253.457 95.9891 253.578 96.2633L253.757 96.6676C253.878 96.942 253.885 97.2531 253.777 97.5326C253.668 97.8122 253.453 98.0374 253.178 98.1588Z" fill="#CCCCCC"/>
<path d="M255.824 103.059L248.592 106.244C248.317 106.365 248.005 106.372 247.725 106.264C247.445 106.155 247.219 105.94 247.097 105.666L246.918 105.262C246.797 104.988 246.79 104.676 246.899 104.397C247.008 104.117 247.223 103.892 247.498 103.771L254.73 100.586C255.005 100.465 255.317 100.458 255.597 100.566C255.877 100.675 256.103 100.889 256.225 101.164L256.404 101.568C256.525 101.842 256.532 102.153 256.423 102.433C256.315 102.712 256.099 102.938 255.824 103.059Z" fill="#CCCCCC"/>
<path d="M238.863 98.9759C238.363 98.6556 237.941 98.2301 237.624 97.7292C237.308 97.2284 237.106 96.6644 237.031 96.0771C236.957 95.4897 237.013 94.8933 237.194 94.3297C237.376 93.7662 237.68 93.2493 238.083 92.8154L235.033 49.6327L243.819 50.4827L244.06 92.7716C244.746 93.4965 245.141 94.4471 245.172 95.4434C245.202 96.4396 244.864 97.4123 244.224 98.1771C243.583 98.9418 242.683 99.4456 241.695 99.5928C240.707 99.74 239.699 99.5205 238.862 98.9759L238.863 98.9759Z" fill="#A0616A"/>
<path d="M237.021 64.1426C236.815 63.9949 236.645 63.8031 236.524 63.5813C236.402 63.3594 236.332 63.1132 236.319 62.8607L235.675 51.2219C235.611 50.0688 235.978 48.933 236.704 48.0335C237.43 47.134 238.464 46.5345 239.607 46.3507C240.749 46.1668 241.92 46.4115 242.893 47.0377C243.865 47.6638 244.571 48.6271 244.874 49.7417L247.702 60.1474C247.82 60.5816 247.76 61.0445 247.535 61.4347C247.311 61.8248 246.941 62.1103 246.506 62.2284L238.462 64.4044C238.217 64.471 237.961 64.4821 237.712 64.4368C237.462 64.3914 237.226 64.2909 237.021 64.1426Z" fill="#3F3D56"/>
<path d="M222.047 152.065H217.415L215.211 134.24H222.048L222.047 152.065Z" fill="#A0616A"/>
<path d="M214.105 150.744H223.039V156.356H208.48C208.48 155.619 208.626 154.889 208.909 154.209C209.191 153.528 209.606 152.909 210.128 152.388C210.65 151.867 211.27 151.454 211.953 151.172C212.635 150.89 213.367 150.744 214.105 150.744Z" fill="#2F2E41"/>
<path d="M239.428 152.065H234.795L232.592 134.24H239.428L239.428 152.065Z" fill="#A0616A"/>
<path d="M231.486 150.744H240.42V156.356H225.861C225.861 155.619 226.007 154.889 226.289 154.209C226.572 153.528 226.987 152.909 227.509 152.388C228.031 151.867 228.651 151.454 229.334 151.172C230.016 150.89 230.748 150.744 231.486 150.744Z" fill="#2F2E41"/>
<path d="M221.828 143.085L216.728 142.842C216.294 142.822 215.884 142.636 215.583 142.323C215.281 142.01 215.112 141.594 215.109 141.16C213.765 120.458 211.903 98.2604 214.753 89.685C214.751 89.4406 214.803 89.1988 214.903 88.976C215.004 88.7533 215.152 88.5548 215.336 88.3943C215.521 88.2338 215.738 88.1149 215.973 88.0458C216.208 87.9768 216.455 87.9592 216.698 87.9942L237.098 90.9487C237.502 91.005 237.871 91.2045 238.138 91.5106C238.406 91.8167 238.553 92.2088 238.554 92.6148C241.159 102.769 241.277 121.181 241.178 140.312C241.18 140.536 241.137 140.758 241.053 140.965C240.968 141.172 240.843 141.361 240.685 141.52C240.527 141.679 240.339 141.805 240.132 141.891C239.925 141.977 239.702 142.021 239.478 142.021H233.98C233.575 142.023 233.182 141.879 232.874 141.616C232.566 141.353 232.362 140.988 232.301 140.588L228.909 119.077C228.859 118.762 228.697 118.476 228.453 118.271C228.208 118.066 227.898 117.957 227.578 117.962C227.259 117.968 226.953 118.089 226.716 118.303C226.479 118.517 226.327 118.809 226.29 119.125L223.597 141.592C223.546 142.004 223.347 142.383 223.036 142.658C222.725 142.933 222.324 143.086 221.908 143.087C221.882 143.087 221.855 143.086 221.828 143.085Z" fill="#2F2E41"/>
<path d="M225.418 92.617C220.922 90.1249 217.409 89.47 215.715 89.3014C215.49 89.2798 215.271 89.2127 215.073 89.1043C214.875 88.9959 214.701 88.8484 214.561 88.6708C214.419 88.492 214.314 88.2862 214.253 88.0658C214.193 87.8454 214.178 87.615 214.209 87.3887L219.098 51.1823C219.379 49.0641 220.199 47.053 221.48 45.3403C222.76 43.6277 224.459 42.2704 226.414 41.3978C228.306 40.5299 230.39 40.1595 232.466 40.3219C234.542 40.4843 236.543 41.174 238.276 42.3254C238.444 42.4366 238.608 42.5501 238.769 42.6659C240.766 44.1253 242.285 46.1417 243.134 48.461C243.984 50.7802 244.127 53.2984 243.544 55.6983C240.546 67.9323 239.517 87.9887 239.341 91.8852C239.327 92.2174 239.215 92.538 239.019 92.8066C238.822 93.0753 238.551 93.28 238.238 93.3949C236.394 94.0635 234.448 94.4093 232.485 94.4168C230.014 94.4317 227.58 93.8119 225.418 92.617Z" fill="#3F3D56"/>
<path d="M229.507 36.4816C234.632 36.4816 238.787 32.3365 238.787 27.2233C238.787 22.11 234.632 17.965 229.507 17.965C224.381 17.965 220.227 22.11 220.227 27.2233C220.227 32.3365 224.381 36.4816 229.507 36.4816Z" fill="#A0616A"/>
<path d="M236.073 34.5481C234.342 36.3879 231.126 35.4003 230.901 32.8868C230.883 32.6917 230.884 32.4953 230.905 32.3004C231.021 31.1871 231.666 30.1763 231.511 29.0007C231.476 28.7082 231.367 28.4293 231.194 28.1907C229.814 26.3477 226.576 29.015 225.274 27.3466C224.476 26.3235 225.414 24.7128 224.801 23.5694C223.993 22.0602 221.598 22.8047 220.096 21.9782C218.425 21.0586 218.525 18.5007 219.625 16.9449C220.966 15.0475 223.318 14.035 225.641 13.8891C227.964 13.7432 230.271 14.3696 232.439 15.2127C234.903 16.1707 237.347 17.4946 238.863 19.6561C240.707 22.2846 240.884 25.8184 239.962 28.892C239.401 30.7617 237.487 33.0457 236.073 34.5481Z" fill="#2F2E41"/>
<path d="M243.422 43.5491C243.26 42.7877 241.865 41.7473 239.87 40.8992C236.664 39.6034 233.196 39.0817 229.749 39.3765C226.301 39.6712 222.973 40.7742 220.034 42.5955C219.829 42.6065 219.633 42.6843 219.477 42.8172C219.321 42.95 219.212 43.1303 219.169 43.3305L212.458 72.94L211.585 76.7962L211.007 79.3482L210.134 83.1931L209.67 85.2474C209.64 85.3788 209.639 85.5149 209.666 85.6468C209.693 85.7786 209.749 85.9032 209.828 86.012C209.907 86.1209 210.009 86.2115 210.127 86.278C210.244 86.3444 210.374 86.385 210.509 86.3971L239.485 88.8926C239.511 88.8926 239.542 88.8963 239.568 88.8963C239.807 88.8949 240.037 88.8031 240.211 88.6394C240.385 88.4757 240.49 88.2523 240.505 88.0143L240.781 83.8263L241.076 79.3482L241.204 77.4069L241.495 72.94L243.426 43.5981V43.5718L243.422 43.5491Z" fill="#FEC5BB"/>
<path d="M195.877 45.4129C195.924 45.6163 195.954 45.823 195.968 46.0311L212.199 55.3727L216.144 53.1069L220.35 58.5999L211.91 64.6012L193.393 50.0273C192.638 50.3061 191.815 50.3489 191.035 50.15C190.255 49.9512 189.554 49.5201 189.025 48.914C188.496 48.308 188.165 47.5558 188.075 46.7574C187.986 45.959 188.142 45.1523 188.523 44.4445C188.904 43.7368 189.492 43.1615 190.209 42.7953C190.926 42.4291 191.737 42.2892 192.535 42.3944C193.334 42.4995 194.081 42.8446 194.678 43.3838C195.275 43.923 195.693 44.6307 195.877 45.4129H195.877Z" fill="#A0616A"/>
<path d="M212.779 54.5784C212.752 54.327 212.782 54.0728 212.867 53.8344C212.951 53.5961 213.088 53.3797 213.268 53.2013L221.529 44.9579C222.347 44.1413 223.44 43.6559 224.596 43.5953C225.752 43.5347 226.889 43.9033 227.789 44.6299C228.689 45.3565 229.287 46.3897 229.468 47.5303C229.65 48.6709 229.401 49.8381 228.771 50.8068L222.888 59.8507C222.642 60.2276 222.257 60.492 221.816 60.5856C221.375 60.6792 220.915 60.5946 220.536 60.3502L213.545 55.8235C213.332 55.6863 213.153 55.5033 213.02 55.2878C212.888 55.0723 212.805 54.8299 212.779 54.5784Z" fill="#3F3D56"/>
<path d="M241.496 72.9399L241.205 77.4068L211.586 76.7961L212.459 72.9399H241.496Z" fill="#CCCCCC"/>
<path d="M241.076 79.3481L240.781 83.8263L210.135 83.193L211.008 79.3481H241.076Z" fill="#CCCCCC"/>
<path d="M229.688 9.23535C226.547 9.23569 223.53 10.4556 221.275 12.6367C219.02 14.8178 217.704 17.7889 217.607 20.9208H215.33C215.129 20.9208 214.937 21.0003 214.796 21.1417C214.654 21.283 214.574 21.4748 214.574 21.6747V24.6903C214.574 24.8903 214.654 25.082 214.796 25.2234C214.937 25.3648 215.129 25.4442 215.33 25.4442H241.023C241.223 25.4442 241.416 25.3648 241.557 25.2234C241.699 25.082 241.779 24.8903 241.779 24.6903V21.2978C241.779 19.7137 241.466 18.1451 240.858 16.6817C240.251 15.2182 239.36 13.8884 238.237 12.7683C237.115 11.6482 235.782 10.7597 234.315 10.1535C232.848 9.54734 231.276 9.23534 229.688 9.23535Z" fill="#FEC5BB"/>
<path d="M40.8499 129.315C38.4586 130.154 35.8911 130.364 33.3948 129.925C30.8985 129.487 28.5576 128.414 26.5974 126.811C21.6054 122.631 20.0403 115.744 18.7668 109.367L15 90.5062L22.8861 95.9235C28.5573 99.8194 34.3563 103.84 38.2831 109.483C42.2098 115.126 43.9238 122.829 40.7688 128.935" fill="#FAE1DD"/>
<path d="M40.1745 152.15C40.9727 146.35 41.7935 140.475 41.2336 134.613C40.7364 129.406 39.1442 124.321 35.9027 120.151C34.1822 117.942 32.0886 116.05 29.7161 114.558C29.0974 114.169 28.528 115.147 29.1439 115.535C33.2491 118.123 36.4242 121.945 38.2117 126.45C40.1858 131.459 40.5028 136.92 40.1626 142.242C39.9569 145.46 39.5209 148.657 39.0815 151.85C39.0469 151.994 39.0685 152.146 39.142 152.275C39.2155 152.405 39.3353 152.501 39.4774 152.545C39.6223 152.584 39.7768 152.565 39.9073 152.491C40.0378 152.417 40.1338 152.294 40.1745 152.15Z" fill="#F2F2F2"/>
<path d="M32.4878 141.887C31.4622 143.442 30.0525 144.707 28.3944 145.561C26.7363 146.415 24.8858 146.828 23.0211 146.761C18.2289 146.534 14.2338 143.197 10.6374 140.03L0 130.66L7.0402 130.323C12.1031 130.082 17.2966 129.856 22.1188 131.414C26.9411 132.972 31.3884 136.72 32.2701 141.7" fill="#FAE1DD"/>
<path d="M42.4311 155.485C38.5893 148.703 34.1332 141.166 26.1709 138.757C23.957 138.089 21.6355 137.85 19.3316 138.052C18.6055 138.115 18.7868 139.231 19.5116 139.169C23.3735 138.849 27.2279 139.867 30.426 142.05C33.5035 144.14 35.8996 147.045 37.9277 150.126C39.1699 152.013 40.2827 153.981 41.3956 155.945C41.7513 156.573 42.7909 156.12 42.4311 155.485Z" fill="#F2F2F2"/>
<path d="M280.622 157H11.6005C11.5003 157 11.4042 156.96 11.3333 156.89C11.2625 156.819 11.2227 156.723 11.2227 156.623C11.2227 156.523 11.2625 156.427 11.3333 156.357C11.4042 156.286 11.5003 156.246 11.6005 156.246H280.622C280.722 156.246 280.818 156.286 280.889 156.357C280.96 156.427 280.999 156.523 280.999 156.623C280.999 156.723 280.96 156.819 280.889 156.89C280.818 156.96 280.722 157 280.622 157Z" fill="#CCCCCC"/>
</g>
<defs>
<clipPath id="clip0">
<rect width="281" height="157" fill="white"/>
</clipPath>
</defs>
</svg>
