<svg width="215" height="189" viewBox="0 0 215 189" fill="none" xmlns="http://www.w3.org/2000/svg">
<g id="undraw_Opened_re_i38e (1) 1" clip-path="url(#clip0)">
<path id="Vector" d="M213.287 186.297C212.912 186.822 212.532 187.344 212.157 187.861C211.077 188.605 209.796 189.003 208.485 189H6.51554C5.26295 189.001 4.03691 188.639 2.98587 187.957C2.63705 187.497 2.29217 187.033 1.94336 186.569L2.29217 186.378L104.538 129.685C105.445 129.184 106.465 128.92 107.501 128.918C108.538 128.917 109.558 129.178 110.467 129.678L212.942 186.106L213.287 186.297Z" fill="#FAE1DD"/>
<path id="Vector_2" d="M208.485 67.0893L119.872 15.8981C116.145 13.745 111.917 12.6105 107.613 12.6083C103.309 12.6062 99.0804 13.7366 95.3512 15.886L6.51515 67.0893C4.78798 67.0917 3.13225 67.7791 1.91095 69.0008C0.689648 70.2225 0.00244333 71.8788 0 73.6065V182.483C0.00201235 184.211 0.689075 185.867 1.91047 187.089C3.13186 188.311 4.78784 188.998 6.51515 189H208.485C210.212 188.997 211.867 188.31 213.089 187.088C214.31 185.866 214.997 184.21 215 182.483V73.6065C214.998 71.8788 214.31 70.2225 213.089 69.0008C211.868 67.7791 210.212 67.0917 208.485 67.0893ZM214.234 182.483C214.23 184.007 213.623 185.467 212.546 186.545C211.468 187.623 210.008 188.23 208.485 188.233H6.51515C4.99135 188.231 3.53075 187.624 2.45326 186.546C1.37577 185.468 0.76923 184.007 0.766488 182.483V73.6065C0.768342 72.0819 1.3746 70.6204 2.45228 69.5423C3.52996 68.4643 4.99108 67.8578 6.51515 67.856L95.3512 16.6528C99.0804 14.5033 103.309 13.373 107.613 13.3751C111.917 13.3772 116.145 14.5117 119.872 16.6648L208.485 67.856C210.009 67.8578 211.47 68.4643 212.548 69.5423C213.625 70.6204 214.232 72.0819 214.234 73.6065V182.483Z" fill="#3F3D56"/>
<g id="letter">
<path id="Vector_3" d="M107.616 128.689C106.948 128.691 106.285 128.58 105.655 128.36L105.539 128.319L105.515 128.061C105.443 128.096 105.37 128.131 105.297 128.163L105.22 128.197L105.143 128.163C104.982 128.092 104.821 128.011 104.666 127.924L34.1094 88.2635V7.28397C34.1115 5.40363 34.8591 3.6009 36.1883 2.2713C37.5175 0.941691 39.3197 0.193791 41.1994 0.191681H173.802C175.682 0.193791 177.484 0.941691 178.813 2.2713C180.142 3.6009 180.89 5.40363 180.892 7.28397V88.3671L180.794 88.4221L110.565 127.924C109.663 128.427 108.648 128.69 107.616 128.689V128.689Z" fill="white"/>
<path id="Vector_4" d="M107.616 128.88C106.927 128.883 106.242 128.768 105.591 128.54L105.359 128.459L105.349 128.349L105.22 128.406L105.066 128.338C104.899 128.265 104.733 128.181 104.573 128.091L33.918 88.3759V7.28398C33.9202 5.35282 34.688 3.50138 36.0531 2.13584C37.4182 0.770306 39.2691 0.00218561 41.1996 0H173.802C175.733 0.00219371 177.583 0.770314 178.949 2.13585C180.314 3.50138 181.082 5.35282 181.084 7.28398V88.4792L110.659 128.091C109.729 128.61 108.681 128.882 107.616 128.88V128.88ZM106.078 127.893C107.487 128.297 108.998 128.128 110.283 127.423L180.317 88.0307V7.28398C180.315 5.55609 179.628 3.89954 178.407 2.67774C177.185 1.45594 175.529 0.768679 173.802 0.766734H41.1996C39.4723 0.768671 37.8162 1.45593 36.5948 2.67773C35.3734 3.89953 34.6864 5.55609 34.6845 7.28398V87.927L39.2794 90.5083L104.948 127.423C105.038 127.473 105.129 127.521 105.221 127.565C105.313 127.521 105.403 127.473 105.492 127.423L106.009 127.132L106.078 127.893Z" fill="#83819D"/>
<path id="Vector_5" d="M213.302 69.9185L185.49 85.5599L180.7 88.255L110.47 127.757C109.597 128.244 108.614 128.499 107.615 128.497C106.969 128.499 106.328 128.391 105.718 128.179C105.548 128.125 105.382 128.061 105.22 127.987C105.063 127.918 104.909 127.841 104.76 127.757L39.0909 90.8427L34.3004 88.1514L1.7553 69.8572C1.66681 69.8064 1.60189 69.7228 1.57464 69.6245C1.54738 69.5261 1.55998 69.421 1.60971 69.332C1.65958 69.2436 1.74247 69.1786 1.84018 69.1513C1.93788 69.124 2.04243 69.1366 2.13087 69.1863L34.3004 87.2697L39.0909 89.9609L105.135 127.086C105.354 127.209 105.583 127.316 105.818 127.404C105.917 127.443 106.021 127.477 106.124 127.508C106.78 127.709 107.47 127.776 108.153 127.703C108.835 127.631 109.496 127.421 110.095 127.086L180.7 87.3771L185.49 84.682L212.927 69.2515C212.97 69.2268 213.019 69.211 213.069 69.2049C213.118 69.1989 213.169 69.2028 213.217 69.2163C213.266 69.2298 213.311 69.2528 213.351 69.2838C213.39 69.3148 213.423 69.3533 213.448 69.3971C213.472 69.4409 213.488 69.4892 213.494 69.5391C213.5 69.589 213.496 69.6396 213.483 69.688C213.469 69.7364 213.447 69.7817 213.415 69.8212C213.384 69.8608 213.346 69.8938 213.302 69.9185V69.9185Z" fill="#3F3D56"/>
<path id="Vector_6" d="M62.8808 25.3022H52.1499C51.3368 25.3022 50.557 24.9791 49.982 24.404C49.407 23.8288 49.084 23.0487 49.084 22.2353C49.084 21.4219 49.407 20.6418 49.982 20.0666C50.557 19.4915 51.3368 19.1684 52.1499 19.1684H62.8808C63.6939 19.1684 64.4738 19.4915 65.0487 20.0666C65.6237 20.6418 65.9467 21.4219 65.9467 22.2353C65.9467 23.0487 65.6237 23.8288 65.0487 24.404C64.4738 24.9791 63.6939 25.3022 62.8808 25.3022Z" fill="#FAE1DD"/>
<path id="Vector_7" d="M75.5278 35.6531H52.1499C51.3368 35.6531 50.557 35.33 49.982 34.7548C49.407 34.1797 49.084 33.3996 49.084 32.5862C49.084 31.7728 49.407 30.9927 49.982 30.4175C50.557 29.8424 51.3368 29.5193 52.1499 29.5193H75.5278C76.341 29.5193 77.1208 29.8424 77.6958 30.4175C78.2708 30.9927 78.5938 31.7728 78.5938 32.5862C78.5938 33.3996 78.2708 34.1797 77.6958 34.7548C77.1208 35.33 76.341 35.6531 75.5278 35.6531Z" fill="#E6E6E6"/>
<path id="Vector_8" d="M140.842 63.2556H74.5406C73.7274 63.2556 72.9476 62.9325 72.3726 62.3573C71.7976 61.7821 71.4746 61.002 71.4746 60.1886C71.4746 59.3752 71.7976 58.5951 72.3726 58.02C72.9476 57.4448 73.7274 57.1217 74.5406 57.1217H140.842C141.655 57.1217 142.435 57.4448 143.01 58.02C143.585 58.5951 143.908 59.3752 143.908 60.1886C143.908 61.002 143.585 61.7821 143.01 62.3573C142.435 62.9325 141.655 63.2556 140.842 63.2556Z" fill="#FAE1DD"/>
<path id="Vector_9" d="M146.975 75.14H68.0269C67.2137 75.14 66.4339 74.8168 65.8589 74.2417C65.284 73.6665 64.9609 72.8864 64.9609 72.073C64.9609 71.2596 65.284 70.4795 65.8589 69.9044C66.4339 69.3292 67.2137 69.0061 68.0269 69.0061H146.975C147.788 69.0061 148.568 69.3292 149.143 69.9044C149.718 70.4795 150.041 71.2596 150.041 72.073C150.041 72.8864 149.718 73.6665 149.143 74.2417C148.568 74.8168 147.788 75.14 146.975 75.14Z" fill="#E6E6E6"/>
<path id="Vector_10" d="M146.975 86.641H68.0269C67.2137 86.641 66.4339 86.3178 65.8589 85.7427C65.284 85.1675 64.9609 84.3874 64.9609 83.574C64.9609 82.7606 65.284 81.9805 65.8589 81.4054C66.4339 80.8302 67.2137 80.5071 68.0269 80.5071H146.975C147.788 80.5071 148.568 80.8302 149.143 81.4054C149.718 81.9805 150.041 82.7606 150.041 83.574C150.041 84.3874 149.718 85.1675 149.143 85.7427C148.568 86.3178 147.788 86.641 146.975 86.641Z" fill="#E6E6E6"/>
</g>
</g>
<defs>
<clipPath id="clip0">
<rect width="215" height="189" fill="white"/>
</clipPath>
</defs>
</svg>
